<svg width="320" height="85" viewBox="0 0 320 85" fill="none" xmlns="http://www.w3.org/2000/svg">
<rect y="10.8537" width="80" height="74.1463" rx="10" fill="#9E5817"/>
<rect y="5" width="80" height="70.2439" rx="10" fill="#EDB878"/>
<rect y="7.92682" width="80" height="72.1951" rx="10" fill="#E29536"/>
<rect x="3.90247" y="9.87805" width="72.1951" height="66.3415" rx="10" fill="#F2A950"/>
<rect x="160" y="10.8537" width="80" height="74.1463" rx="10" fill="#179E8A"/>
<rect x="160" y="5" width="80" height="70.2439" rx="10" fill="#78EDDB"/>
<rect x="160" y="7.92682" width="80" height="72.1951" rx="10" fill="#36E2C8"/>
<rect x="163.902" y="9.87805" width="72.1951" height="66.3415" rx="10" fill="#50F2DA"/>
<rect x="80" y="6" width="80" height="79" rx="10" fill="#9E5817"/>
<rect x="80" width="80" height="70.2439" rx="10" fill="#EDB878"/>
<rect x="80" y="2.92682" width="80" height="72.1951" rx="10" fill="#E29536"/>
<rect x="83.9025" y="4.87805" width="72.1951" height="66.3415" rx="10" fill="#F2A950"/>
<rect x="240" y="5.93024" width="80" height="79.0698" rx="10" fill="#179E8A"/>
<rect x="240" width="80" height="71.1628" rx="10" fill="#78EDDB"/>
<rect x="240" y="2.96512" width="80" height="73.1395" rx="10" fill="#36E2C8"/>
<rect x="243.902" y="4.94186" width="72.1951" height="67.2093" rx="10" fill="#50F2DA"/>
<circle cx="3.20412" cy="3.20412" r="3.20412" transform="matrix(1 0 0 -1 37 46.0989)" fill="black"/>
<circle cx="3.20412" cy="3.20412" r="4.70412" transform="matrix(1 0 0 -1 37 46.0989)" stroke="black" stroke-opacity="0.25" stroke-width="3"/>
<circle cx="3.20412" cy="3.20412" r="3.20412" transform="matrix(1 0 0 -1 55.6907 27.4082)" fill="black"/>
<circle cx="3.20412" cy="3.20412" r="4.70412" transform="matrix(1 0 0 -1 55.6907 27.4082)" stroke="black" stroke-opacity="0.25" stroke-width="3"/>
<path d="M40.2042 42.8947L58.8948 24.204" stroke="black" stroke-width="2" stroke-dasharray="3 1"/>
<circle cx="40" cy="43" r="27" stroke="black" stroke-width="4"/>
<circle cx="3.20412" cy="3.20412" r="3.20412" transform="matrix(1 0 0 -1 117 41.0989)" fill="black"/>
<circle cx="3.20412" cy="3.20412" r="4.70412" transform="matrix(1 0 0 -1 117 41.0989)" stroke="black" stroke-opacity="0.25" stroke-width="3"/>
<circle cx="3.20412" cy="3.20412" r="3.20412" transform="matrix(1 0 0 -1 135.691 22.4082)" fill="black"/>
<circle cx="3.20412" cy="3.20412" r="4.70412" transform="matrix(1 0 0 -1 135.691 22.4082)" stroke="black" stroke-opacity="0.25" stroke-width="3"/>
<path d="M120.204 37.8947L138.895 19.204" stroke="black" stroke-width="2" stroke-dasharray="3 1"/>
<circle cx="120" cy="38" r="27" stroke="black" stroke-width="4"/>
<circle cx="3.20412" cy="3.20412" r="3.20412" transform="matrix(1 0 0 -1 197 46.0989)" fill="black"/>
<circle cx="3.20412" cy="3.20412" r="4.70412" transform="matrix(1 0 0 -1 197 46.0989)" stroke="black" stroke-opacity="0.25" stroke-width="3"/>
<circle cx="3.20412" cy="3.20412" r="3.20412" transform="matrix(1 0 0 -1 215.691 27.4082)" fill="black"/>
<circle cx="3.20412" cy="3.20412" r="4.70412" transform="matrix(1 0 0 -1 215.691 27.4082)" stroke="black" stroke-opacity="0.25" stroke-width="3"/>
<path d="M200.204 42.8947L218.895 24.204" stroke="black" stroke-width="2" stroke-dasharray="3 1"/>
<circle cx="200" cy="43" r="27" stroke="black" stroke-width="4"/>
<circle cx="3.20412" cy="3.20412" r="3.20412" transform="matrix(1 0 0 -1 277 41.0989)" fill="black"/>
<circle cx="3.20412" cy="3.20412" r="4.70412" transform="matrix(1 0 0 -1 277 41.0989)" stroke="black" stroke-opacity="0.25" stroke-width="3"/>
<circle cx="3.20412" cy="3.20412" r="3.20412" transform="matrix(1 0 0 -1 295.691 22.4082)" fill="black"/>
<circle cx="3.20412" cy="3.20412" r="4.70412" transform="matrix(1 0 0 -1 295.691 22.4082)" stroke="black" stroke-opacity="0.25" stroke-width="3"/>
<path d="M280.204 37.8947L298.895 19.204" stroke="black" stroke-width="2" stroke-dasharray="3 1"/>
<circle cx="280" cy="38" r="27" stroke="black" stroke-width="4"/>
</svg>
