<svg width="200" height="54" viewBox="0 0 200 54" fill="none" xmlns="http://www.w3.org/2000/svg">
<rect y="6.78351" width="50" height="46.3415" rx="10" fill="#9E5817"/>
<rect y="3.125" width="50" height="43.9024" rx="10" fill="#EDB878"/>
<rect y="4.95425" width="50" height="45.122" rx="10" fill="#E29536"/>
<rect x="2.43903" y="6.17377" width="45.122" height="41.4634" rx="10" fill="#F2A950"/>
<circle cx="2.5" cy="2.5" r="2.5" transform="matrix(1 0 0 -1 16.25 34.375)" fill="black"/>
<circle cx="2.5" cy="2.5" r="4" transform="matrix(1 0 0 -1 16.25 34.375)" stroke="black" stroke-opacity="0.5" stroke-width="3"/>
<circle cx="2.5" cy="2.5" r="2.5" transform="matrix(1 0 0 -1 27.5 23.125)" fill="black"/>
<circle cx="2.5" cy="2.5" r="4" transform="matrix(1 0 0 -1 27.5 23.125)" stroke="black" stroke-opacity="0.5" stroke-width="3"/>
<path d="M5 45.625L16.1535 42.6364L7.98858 34.4714L5 45.625ZM43.125 7.5L31.9714 10.4886L40.1364 18.6535L43.125 7.5ZM12.0711 39.9681L37.4681 14.5711L36.0539 13.1569L10.6569 38.5539L12.0711 39.9681Z" fill="black"/>
<rect x="100" y="6.78351" width="50" height="46.3415" rx="10" fill="#179E8A"/>
<rect x="100" y="3.125" width="50" height="43.9024" rx="10" fill="#78EDDB"/>
<rect x="100" y="4.95425" width="50" height="45.122" rx="10" fill="#36E2C8"/>
<rect x="102.439" y="6.17377" width="45.122" height="41.4634" rx="10" fill="#50F2DA"/>
<rect x="50" y="3.75" width="50" height="49.375" rx="10" fill="#9E5817"/>
<rect x="50" width="50" height="43.9024" rx="10" fill="#EDB878"/>
<rect x="50" y="1.82925" width="50" height="45.122" rx="10" fill="#E29536"/>
<rect x="52.439" y="3.04877" width="45.122" height="41.4634" rx="10" fill="#F2A950"/>
<rect x="150" y="3.70639" width="50" height="49.4186" rx="10" fill="#179E8A"/>
<rect x="150" width="50" height="44.4767" rx="10" fill="#78EDDB"/>
<rect x="150" y="1.85318" width="50" height="45.7122" rx="10" fill="#36E2C8"/>
<rect x="152.439" y="3.08865" width="45.122" height="42.0058" rx="10" fill="#50F2DA"/>
<circle cx="2.5" cy="2.5" r="2.5" transform="matrix(1 0 0 -1 66.875 31.25)" fill="black"/>
<circle cx="2.5" cy="2.5" r="4" transform="matrix(1 0 0 -1 66.875 31.25)" stroke="black" stroke-opacity="0.5" stroke-width="3"/>
<circle cx="2.5" cy="2.5" r="2.5" transform="matrix(1 0 0 -1 78.125 20)" fill="black"/>
<circle cx="2.5" cy="2.5" r="4" transform="matrix(1 0 0 -1 78.125 20)" stroke="black" stroke-opacity="0.5" stroke-width="3"/>
<path d="M55.625 42.5L66.7785 39.5114L58.6136 31.3464L55.625 42.5ZM93.75 4.375L82.5964 7.36358L90.7614 15.5285L93.75 4.375ZM62.6961 36.8431L88.0931 11.4461L86.6789 10.0319L61.2819 35.4289L62.6961 36.8431Z" fill="black"/>
<circle cx="2.5" cy="2.5" r="2.5" transform="matrix(1 0 0 -1 117.5 35)" fill="black"/>
<circle cx="2.5" cy="2.5" r="4" transform="matrix(1 0 0 -1 117.5 35)" stroke="black" stroke-opacity="0.5" stroke-width="3"/>
<circle cx="2.5" cy="2.5" r="2.5" transform="matrix(1 0 0 -1 128.75 23.75)" fill="black"/>
<circle cx="2.5" cy="2.5" r="4" transform="matrix(1 0 0 -1 128.75 23.75)" stroke="black" stroke-opacity="0.5" stroke-width="3"/>
<path d="M106.25 46.25L117.404 43.2614L109.239 35.0964L106.25 46.25ZM144.375 8.125L133.221 11.1136L141.386 19.2785L144.375 8.125ZM113.321 40.5931L138.718 15.1961L137.304 13.7819L111.907 39.1789L113.321 40.5931Z" fill="black"/>
<circle cx="2.5" cy="2.5" r="2.5" transform="matrix(1 0 0 -1 167.5 31.875)" fill="black"/>
<circle cx="2.5" cy="2.5" r="4" transform="matrix(1 0 0 -1 167.5 31.875)" stroke="black" stroke-opacity="0.5" stroke-width="3"/>
<circle cx="2.5" cy="2.5" r="2.5" transform="matrix(1 0 0 -1 178.75 20.625)" fill="black"/>
<circle cx="2.5" cy="2.5" r="4" transform="matrix(1 0 0 -1 178.75 20.625)" stroke="black" stroke-opacity="0.5" stroke-width="3"/>
<path d="M156.25 43.125L167.404 40.1364L159.239 31.9714L156.25 43.125ZM194.375 5L183.221 7.98858L191.386 16.1535L194.375 5ZM163.321 37.4681L188.718 12.0711L187.304 10.6569L161.907 36.0539L163.321 37.4681Z" fill="black"/>
</svg>
