<svg width="200" height="54" viewBox="0 0 200 54" fill="none" xmlns="http://www.w3.org/2000/svg">
<rect y="6.78354" width="50" height="46.3415" rx="10" fill="#9E5817"/>
<rect y="3.125" width="50" height="43.9024" rx="10" fill="#EDB878"/>
<rect y="4.95425" width="50" height="45.122" rx="10" fill="#E29536"/>
<rect x="2.43903" y="6.17377" width="45.122" height="41.4634" rx="10" fill="#F2A950"/>
<rect x="100" y="6.78354" width="50" height="46.3415" rx="10" fill="#179E8A"/>
<rect x="100" y="3.125" width="50" height="43.9024" rx="10" fill="#78EDDB"/>
<rect x="100" y="4.95425" width="50" height="45.122" rx="10" fill="#36E2C8"/>
<rect x="102.439" y="6.17377" width="45.122" height="41.4634" rx="10" fill="#50F2DA"/>
<rect x="50" y="3.75" width="50" height="49.375" rx="10" fill="#9E5817"/>
<rect x="50" width="50" height="43.9024" rx="10" fill="#EDB878"/>
<rect x="50" y="1.82925" width="50" height="45.122" rx="10" fill="#E29536"/>
<rect x="52.439" y="3.04877" width="45.122" height="41.4634" rx="10" fill="#F2A950"/>
<rect x="150" y="3.70639" width="50" height="49.4186" rx="10" fill="#179E8A"/>
<rect x="150" width="50" height="44.4767" rx="10" fill="#78EDDB"/>
<rect x="150" y="1.85321" width="50" height="45.7122" rx="10" fill="#36E2C8"/>
<rect x="152.439" y="3.08865" width="45.122" height="42.0058" rx="10" fill="#50F2DA"/>
<circle cx="2.00257" cy="2.00257" r="2.00257" transform="matrix(1 0 0 -1 23.125 28.8118)" fill="black"/>
<circle cx="2.00257" cy="2.00257" r="3.50257" transform="matrix(1 0 0 -1 23.125 28.8118)" stroke="black" stroke-opacity="0.25" stroke-width="3"/>
<circle cx="2.00257" cy="2.00257" r="2.00257" transform="matrix(1 0 0 -1 34.8066 17.1301)" fill="black"/>
<circle cx="2.00257" cy="2.00257" r="3.50257" transform="matrix(1 0 0 -1 34.8066 17.1301)" stroke="black" stroke-opacity="0.25" stroke-width="3"/>
<path d="M25.1276 26.8092L36.8093 15.1275" stroke="black" stroke-dasharray="3 1"/>
<circle cx="25" cy="26.875" r="16.625" stroke="black" stroke-width="3"/>
<circle cx="2.00257" cy="2.00257" r="2.00257" transform="matrix(1 0 0 -1 73.125 25.6868)" fill="black"/>
<circle cx="2.00257" cy="2.00257" r="3.50257" transform="matrix(1 0 0 -1 73.125 25.6868)" stroke="black" stroke-opacity="0.25" stroke-width="3"/>
<circle cx="2.00257" cy="2.00257" r="2.00257" transform="matrix(1 0 0 -1 84.8066 14.0051)" fill="black"/>
<circle cx="2.00257" cy="2.00257" r="3.50257" transform="matrix(1 0 0 -1 84.8066 14.0051)" stroke="black" stroke-opacity="0.25" stroke-width="3"/>
<path d="M75.1276 23.6842L86.8093 12.0025" stroke="black" stroke-dasharray="3 1"/>
<circle cx="75" cy="23.75" r="16.625" stroke="black" stroke-width="3"/>
<circle cx="2.00257" cy="2.00257" r="2.00257" transform="matrix(1 0 0 -1 123.125 28.8118)" fill="black"/>
<circle cx="2.00257" cy="2.00257" r="3.50257" transform="matrix(1 0 0 -1 123.125 28.8118)" stroke="black" stroke-opacity="0.25" stroke-width="3"/>
<circle cx="2.00257" cy="2.00257" r="2.00257" transform="matrix(1 0 0 -1 134.807 17.1301)" fill="black"/>
<circle cx="2.00257" cy="2.00257" r="3.50257" transform="matrix(1 0 0 -1 134.807 17.1301)" stroke="black" stroke-opacity="0.25" stroke-width="3"/>
<path d="M125.128 26.8092L136.809 15.1275" stroke="black" stroke-dasharray="3 1"/>
<circle cx="125" cy="26.875" r="16.625" stroke="black" stroke-width="3"/>
<circle cx="2.00257" cy="2.00257" r="2.00257" transform="matrix(1 0 0 -1 173.125 25.6868)" fill="black"/>
<circle cx="2.00257" cy="2.00257" r="3.50257" transform="matrix(1 0 0 -1 173.125 25.6868)" stroke="black" stroke-opacity="0.25" stroke-width="3"/>
<circle cx="2.00257" cy="2.00257" r="2.00257" transform="matrix(1 0 0 -1 184.807 14.0051)" fill="black"/>
<circle cx="2.00257" cy="2.00257" r="3.50257" transform="matrix(1 0 0 -1 184.807 14.0051)" stroke="black" stroke-opacity="0.25" stroke-width="3"/>
<path d="M175.128 23.6842L186.809 12.0025" stroke="black" stroke-dasharray="3 1"/>
<circle cx="175" cy="23.75" r="16.625" stroke="black" stroke-width="3"/>
</svg>
