<svg width="200" height="54" viewBox="0 0 200 54" fill="none" xmlns="http://www.w3.org/2000/svg">
<rect y="6.78354" width="50" height="46.3415" rx="10" fill="#9E5817"/>
<rect y="3.125" width="50" height="43.9024" rx="10" fill="#EDB878"/>
<rect y="4.95427" width="50" height="45.122" rx="10" fill="#E29536"/>
<rect x="2.43903" y="6.17378" width="45.122" height="41.4634" rx="10" fill="#F2A950"/>
<circle cx="5" cy="5" r="5" transform="matrix(1 0 0 -1 20 41.25)" fill="black"/>
<circle cx="5" cy="5" r="7.5" transform="matrix(1 0 0 -1 20 41.25)" stroke="black" stroke-opacity="0.5" stroke-width="5"/>
<path d="M25 10.625C16.4474 10.625 12.5 15.125 12.5 15.125C12.5 15.125 12.5 18.0179 18.4211 23.8036C24.6797 29.9191 25 37.4107 25 42.7679C25 37.4107 25.4735 29.7695 31.5789 23.8036C37.5 18.0179 37.5 15.125 37.5 15.125C37.5 15.125 33.5526 10.625 25 10.625Z" fill="black" fill-opacity="0.7"/>
<path d="M14.1469 15.6281C14.1685 15.6098 14.1907 15.591 14.2135 15.5718C14.6508 15.2056 15.3308 14.7009 16.2628 14.1909C18.1197 13.1748 20.999 12.125 25 12.125C29.001 12.125 31.8803 13.1748 33.7372 14.1909C34.6692 14.7009 35.3492 15.2056 35.7865 15.5718C35.8093 15.591 35.8315 15.6098 35.8531 15.6281C35.7676 15.8749 35.6337 16.2025 35.4245 16.6114C34.7754 17.8799 33.4053 19.9218 30.5306 22.7307C27.7299 25.4674 26.0395 28.5272 25.0217 31.5563C24.0117 28.5581 22.3155 25.5118 19.4694 22.7307C16.5947 19.9218 15.2246 17.8799 14.5755 16.6114C14.3663 16.2025 14.2324 15.8749 14.1469 15.6281Z" stroke="black" stroke-opacity="0.9" stroke-width="3"/>
<rect x="50" y="3.75" width="50" height="49.375" rx="10" fill="#9E5817"/>
<rect x="50" width="50" height="43.9024" rx="10" fill="#EDB878"/>
<rect x="50" y="1.82927" width="50" height="45.122" rx="10" fill="#E29536"/>
<rect x="52.439" y="3.04878" width="45.122" height="41.4634" rx="10" fill="#F2A950"/>
<circle cx="5" cy="5" r="5" transform="matrix(1 0 0 -1 70 38.125)" fill="black"/>
<circle cx="5" cy="5" r="7.5" transform="matrix(1 0 0 -1 70 38.125)" stroke="black" stroke-opacity="0.5" stroke-width="5"/>
<path d="M75 7.5C66.4474 7.5 62.5 12 62.5 12C62.5 12 62.5 14.8929 68.4211 20.6786C74.6797 26.7941 75 34.2857 75 39.6429C75 34.2857 75.4735 26.6445 81.5789 20.6786C87.5 14.8929 87.5 12 87.5 12C87.5 12 83.5526 7.5 75 7.5Z" fill="black" fill-opacity="0.7"/>
<path d="M64.1469 12.5031C64.1685 12.4848 64.1907 12.466 64.2135 12.4468C64.6508 12.0806 65.3308 11.5759 66.2628 11.0659C68.1197 10.0498 70.999 9 75 9C79.001 9 81.8803 10.0498 83.7372 11.0659C84.6692 11.5759 85.3492 12.0806 85.7865 12.4468C85.8093 12.466 85.8315 12.4848 85.8531 12.5031C85.7676 12.7499 85.6337 13.0775 85.4245 13.4864C84.7754 14.7549 83.4053 16.7968 80.5306 19.6057C77.7299 22.3424 76.0395 25.4022 75.0217 28.4313C74.0117 25.4331 72.3155 22.3868 69.4694 19.6057C66.5947 16.7968 65.2246 14.7549 64.5755 13.4864C64.3663 13.0775 64.2324 12.7499 64.1469 12.5031Z" stroke="black" stroke-opacity="0.9" stroke-width="3"/>
<rect x="150" y="3.70639" width="50" height="49.4186" rx="10" fill="#179E8A"/>
<rect x="150" width="50" height="44.4767" rx="10" fill="#78EDDB"/>
<rect x="150" y="1.8532" width="50" height="45.7122" rx="10" fill="#36E2C8"/>
<rect x="152.439" y="3.08867" width="45.122" height="42.0058" rx="10" fill="#50F2DA"/>
<circle cx="5" cy="5" r="5" transform="matrix(1 0 0 -1 170 38.125)" fill="black"/>
<circle cx="5" cy="5" r="7.5" transform="matrix(1 0 0 -1 170 38.125)" stroke="black" stroke-opacity="0.5" stroke-width="5"/>
<path d="M175 7.5C166.447 7.5 162.5 12 162.5 12C162.5 12 162.5 14.8929 168.421 20.6786C174.68 26.7941 175 34.2857 175 39.6429C175 34.2857 175.473 26.6445 181.579 20.6786C187.5 14.8929 187.5 12 187.5 12C187.5 12 183.553 7.5 175 7.5Z" fill="black" fill-opacity="0.7"/>
<path d="M164.147 12.5031C164.168 12.4848 164.191 12.466 164.214 12.4468C164.651 12.0806 165.331 11.5759 166.263 11.0659C168.12 10.0498 170.999 9 175 9C179.001 9 181.88 10.0498 183.737 11.0659C184.669 11.5759 185.349 12.0806 185.786 12.4468C185.809 12.466 185.832 12.4848 185.853 12.5031C185.768 12.7499 185.634 13.0775 185.425 13.4864C184.775 14.7549 183.405 16.7968 180.531 19.6057C177.73 22.3424 176.039 25.4022 175.022 28.4313C174.012 25.4331 172.316 22.3868 169.469 19.6057C166.595 16.7968 165.225 14.7549 164.575 13.4864C164.366 13.0775 164.232 12.7499 164.147 12.5031Z" stroke="black" stroke-opacity="0.9" stroke-width="3"/>
<rect x="100" y="6.78354" width="50" height="46.3415" rx="10" fill="#179E8A"/>
<rect x="100" y="3.125" width="50" height="43.9024" rx="10" fill="#78EDDB"/>
<rect x="100" y="4.95427" width="50" height="45.122" rx="10" fill="#36E2C8"/>
<rect x="102.439" y="6.17378" width="45.122" height="41.4634" rx="10" fill="#50F2DA"/>
<circle cx="5" cy="5" r="5" transform="matrix(1 0 0 -1 120 41.25)" fill="black"/>
<circle cx="5" cy="5" r="7.5" transform="matrix(1 0 0 -1 120 41.25)" stroke="black" stroke-opacity="0.5" stroke-width="5"/>
<path d="M125 10.625C116.447 10.625 112.5 15.125 112.5 15.125C112.5 15.125 112.5 18.0179 118.421 23.8036C124.68 29.9191 125 37.4107 125 42.7679C125 37.4107 125.473 29.7695 131.579 23.8036C137.5 18.0179 137.5 15.125 137.5 15.125C137.5 15.125 133.553 10.625 125 10.625Z" fill="black" fill-opacity="0.7"/>
<path d="M114.147 15.6281C114.168 15.6098 114.191 15.591 114.214 15.5718C114.651 15.2056 115.331 14.7009 116.263 14.1909C118.12 13.1748 120.999 12.125 125 12.125C129.001 12.125 131.88 13.1748 133.737 14.1909C134.669 14.7009 135.349 15.2056 135.786 15.5718C135.809 15.591 135.832 15.6098 135.853 15.6281C135.768 15.8749 135.634 16.2025 135.425 16.6114C134.775 17.8799 133.405 19.9218 130.531 22.7307C127.73 25.4674 126.039 28.5272 125.022 31.5563C124.012 28.5581 122.316 25.5118 119.469 22.7307C116.595 19.9218 115.225 17.8799 114.575 16.6114C114.366 16.2025 114.232 15.8749 114.147 15.6281Z" stroke="black" stroke-opacity="0.9" stroke-width="3"/>
<line x1="2.5" y1="35.5" x2="47.5" y2="35.5" stroke="black" stroke-opacity="0.5" stroke-width="4" stroke-dasharray="6 3"/>
<line x1="102.5" y1="35.5" x2="147.5" y2="35.5" stroke="black" stroke-opacity="0.5" stroke-width="4" stroke-dasharray="6 3"/>
<line x1="52.5" y1="32.375" x2="97.5" y2="32.375" stroke="black" stroke-opacity="0.5" stroke-width="4" stroke-dasharray="6 3"/>
<line x1="152.5" y1="32.375" x2="197.5" y2="32.375" stroke="black" stroke-opacity="0.5" stroke-width="4" stroke-dasharray="6 3"/>
</svg>
