<svg width="324" height="86" viewBox="0 0 324 86" fill="none" xmlns="http://www.w3.org/2000/svg">
<rect y="11.8537" width="80" height="74.1463" rx="10" fill="#9E5817"/>
<rect y="6" width="80" height="70.2439" rx="10" fill="#EDB878"/>
<rect y="8.92683" width="80" height="72.1951" rx="10" fill="#E29536"/>
<rect x="3.90247" y="10.8781" width="72.1951" height="66.3415" rx="10" fill="#F2A950"/>
<rect x="80" y="7" width="80" height="79" rx="10" fill="#9E5817"/>
<rect x="80" y="1" width="80" height="70.2439" rx="10" fill="#EDB878"/>
<rect x="80" y="3.92683" width="80" height="72.1951" rx="10" fill="#E29536"/>
<rect x="83.9025" y="5.87805" width="72.1951" height="66.3415" rx="10" fill="#F2A950"/>
<rect x="160" y="10" width="82" height="76" rx="10" fill="#179E8A"/>
<rect x="160" y="4" width="82" height="72" rx="10" fill="#78EDDB"/>
<rect x="160" y="7" width="82" height="74" rx="10" fill="#36E2C8"/>
<rect x="164" y="9" width="74" height="68" rx="10" fill="#50F2DA"/>
<rect x="242" y="6" width="82" height="80" rx="10" fill="#179E8A"/>
<rect x="242" width="82" height="72" rx="10" fill="#78EDDB"/>
<rect x="242" y="3" width="82" height="74" rx="10" fill="#36E2C8"/>
<rect x="246" y="5" width="74" height="68" rx="10" fill="#50F2DA"/>
<circle cx="8" cy="8" r="8" transform="matrix(1 0 0 -1 32 67)" fill="black"/>
<circle cx="8" cy="8" r="10.5" transform="matrix(1 0 0 -1 32 67)" stroke="black" stroke-opacity="0.5" stroke-width="5"/>
<path d="M40 18C26.3158 18 20 25.2 20 25.2C20 25.2 20 29.8286 29.4737 39.0857C39.4875 48.8706 40 60.8571 40 69.4286C40 60.8571 40.7575 48.6312 50.5263 39.0857C60 29.8286 60 25.2 60 25.2C60 25.2 53.6842 18 40 18Z" fill="black" fill-opacity="0.7"/>
<path d="M22.5195 27.9881C21.9812 26.9362 21.7264 26.1788 21.6062 25.7153C21.7565 25.5759 21.9423 25.4105 22.1638 25.225C22.9033 24.6056 24.0397 23.7634 25.5885 22.9159C28.6789 21.2248 33.4332 19.5 40 19.5C46.5668 19.5 51.3211 21.2248 54.4115 22.9159C55.9603 23.7634 57.0967 24.6056 57.8362 25.225C58.0577 25.4105 58.2435 25.5759 58.3938 25.7153C58.2736 26.1788 58.0188 26.9362 57.4805 27.9881C56.3873 30.1245 54.1289 33.4682 49.478 38.0128C44.2207 43.15 41.4679 49.0215 40.0338 54.6864C38.6262 49.0815 35.8776 43.246 30.522 38.0128C25.8711 33.4682 23.6127 30.1245 22.5195 27.9881Z" stroke="black" stroke-opacity="0.9" stroke-width="3"/>
<circle cx="8" cy="8" r="8" transform="matrix(1 0 0 -1 112 62)" fill="black"/>
<circle cx="8" cy="8" r="10.5" transform="matrix(1 0 0 -1 112 62)" stroke="black" stroke-opacity="0.5" stroke-width="5"/>
<path d="M120 13C106.316 13 100 20.2 100 20.2C100 20.2 100 24.8286 109.474 34.0857C119.488 43.8706 120 55.8571 120 64.4286C120 55.8571 120.758 43.6312 130.526 34.0857C140 24.8286 140 20.2 140 20.2C140 20.2 133.684 13 120 13Z" fill="black" fill-opacity="0.7"/>
<path d="M102.52 22.9881C101.981 21.9362 101.726 21.1788 101.606 20.7153C101.757 20.5759 101.942 20.4105 102.164 20.225C102.903 19.6056 104.04 18.7634 105.588 17.9159C108.679 16.2248 113.433 14.5 120 14.5C126.567 14.5 131.321 16.2248 134.412 17.9159C135.96 18.7634 137.097 19.6056 137.836 20.225C138.058 20.4105 138.243 20.5759 138.394 20.7153C138.274 21.1788 138.019 21.9362 137.48 22.9881C136.387 25.1245 134.129 28.4682 129.478 33.0128C124.221 38.15 121.468 44.0215 120.034 49.6864C118.626 44.0815 115.878 38.246 110.522 33.0128C105.871 28.4682 103.613 25.1245 102.52 22.9881Z" stroke="black" stroke-opacity="0.9" stroke-width="3"/>
<circle cx="8" cy="8" r="8" transform="matrix(1 0 0 -1 275 62)" fill="black"/>
<circle cx="8" cy="8" r="10.5" transform="matrix(1 0 0 -1 275 62)" stroke="black" stroke-opacity="0.5" stroke-width="5"/>
<path d="M283 13C269.316 13 263 20.2 263 20.2C263 20.2 263 24.8286 272.474 34.0857C282.488 43.8706 283 55.8571 283 64.4286C283 55.8571 283.758 43.6312 293.526 34.0857C303 24.8286 303 20.2 303 20.2C303 20.2 296.684 13 283 13Z" fill="black" fill-opacity="0.7"/>
<path d="M265.52 22.9881C264.981 21.9362 264.726 21.1788 264.606 20.7153C264.757 20.5759 264.942 20.4105 265.164 20.225C265.903 19.6056 267.04 18.7634 268.588 17.9159C271.679 16.2248 276.433 14.5 283 14.5C289.567 14.5 294.321 16.2248 297.412 17.9159C298.96 18.7634 300.097 19.6056 300.836 20.225C301.058 20.4105 301.243 20.5759 301.394 20.7153C301.274 21.1788 301.019 21.9362 300.48 22.9881C299.387 25.1245 297.129 28.4682 292.478 33.0128C287.221 38.15 284.468 44.0215 283.034 49.6864C281.626 44.0815 278.878 38.246 273.522 33.0128C268.871 28.4682 266.613 25.1245 265.52 22.9881Z" stroke="black" stroke-opacity="0.9" stroke-width="3"/>
<circle cx="8" cy="8" r="8" transform="matrix(1 0 0 -1 194 67)" fill="black"/>
<circle cx="8" cy="8" r="10.5" transform="matrix(1 0 0 -1 194 67)" stroke="black" stroke-opacity="0.5" stroke-width="5"/>
<path d="M202 18C188.316 18 182 25.2 182 25.2C182 25.2 182 29.8286 191.474 39.0857C201.488 48.8706 202 60.8571 202 69.4286C202 60.8571 202.758 48.6312 212.526 39.0857C222 29.8286 222 25.2 222 25.2C222 25.2 215.684 18 202 18Z" fill="black" fill-opacity="0.7"/>
<path d="M184.52 27.9881C183.981 26.9362 183.726 26.1788 183.606 25.7153C183.757 25.5759 183.942 25.4105 184.164 25.225C184.903 24.6056 186.04 23.7634 187.588 22.9159C190.679 21.2248 195.433 19.5 202 19.5C208.567 19.5 213.321 21.2248 216.412 22.9159C217.96 23.7634 219.097 24.6056 219.836 25.225C220.058 25.4105 220.243 25.5759 220.394 25.7153C220.274 26.1788 220.019 26.9362 219.48 27.9881C218.387 30.1245 216.129 33.4682 211.478 38.0128C206.221 43.15 203.468 49.0215 202.034 54.6864C200.626 49.0815 197.878 43.246 192.522 38.0128C187.871 33.4682 185.613 30.1245 184.52 27.9881Z" stroke="black" stroke-opacity="0.9" stroke-width="3"/>
</svg>
