<svg width="320" height="85" viewBox="0 0 320 85" fill="none" xmlns="http://www.w3.org/2000/svg">
<rect y="10.8537" width="80" height="74.1463" rx="10" fill="#9E5817"/>
<rect y="5" width="80" height="70.2439" rx="10" fill="#EDB878"/>
<rect y="7.92682" width="80" height="72.1951" rx="10" fill="#E29536"/>
<rect x="3.90247" y="9.87805" width="72.1951" height="66.3415" rx="10" fill="#F2A950"/>
<rect x="80" y="6" width="80" height="79" rx="10" fill="#9E5817"/>
<rect x="80" width="80" height="70.2439" rx="10" fill="#EDB878"/>
<rect x="80" y="2.92682" width="80" height="72.1951" rx="10" fill="#E29536"/>
<rect x="83.9025" y="4.87805" width="72.1951" height="66.3415" rx="10" fill="#F2A950"/>
<rect x="160" y="10.8537" width="80" height="74.1463" rx="10" fill="#179E8A"/>
<rect x="160" y="5" width="80" height="70.2439" rx="10" fill="#78EDDB"/>
<rect x="160" y="7.92682" width="80" height="72.1951" rx="10" fill="#36E2C8"/>
<rect x="163.902" y="9.87805" width="72.1951" height="66.3415" rx="10" fill="#50F2DA"/>
<rect x="240" y="5.93024" width="80" height="79.0698" rx="10" fill="#179E8A"/>
<rect x="240" width="80" height="71.1628" rx="10" fill="#78EDDB"/>
<rect x="240" y="2.96512" width="80" height="73.1395" rx="10" fill="#36E2C8"/>
<rect x="243.902" y="4.94186" width="72.1951" height="67.2093" rx="10" fill="#50F2DA"/>
<circle cx="6" cy="6" r="6" transform="matrix(1 0 0 -1 17 68)" fill="black"/>
<circle cx="6" cy="6" r="8.5" transform="matrix(1 0 0 -1 17 68)" stroke="black" stroke-opacity="0.5" stroke-width="5"/>
<circle cx="6" cy="6" r="6" transform="matrix(1 0 0 -1 52 33)" fill="black"/>
<circle cx="6" cy="6" r="8.5" transform="matrix(1 0 0 -1 52 33)" stroke="black" stroke-opacity="0.5" stroke-width="5"/>
<path d="M23 62L58 27" stroke="black" stroke-width="5"/>
<circle cx="6" cy="6" r="6" transform="matrix(1 0 0 -1 176 68)" fill="black"/>
<circle cx="6" cy="6" r="8.5" transform="matrix(1 0 0 -1 176 68)" stroke="black" stroke-opacity="0.5" stroke-width="5"/>
<circle cx="6" cy="6" r="6" transform="matrix(1 0 0 -1 211 33)" fill="black"/>
<circle cx="6" cy="6" r="8.5" transform="matrix(1 0 0 -1 211 33)" stroke="black" stroke-opacity="0.5" stroke-width="5"/>
<path d="M182 62L217 27" stroke="black" stroke-width="5"/>
<circle cx="6" cy="6" r="6" transform="matrix(1 0 0 -1 97 62)" fill="black"/>
<circle cx="6" cy="6" r="8.5" transform="matrix(1 0 0 -1 97 62)" stroke="black" stroke-opacity="0.5" stroke-width="5"/>
<circle cx="6" cy="6" r="6" transform="matrix(1 0 0 -1 132 27)" fill="black"/>
<circle cx="6" cy="6" r="8.5" transform="matrix(1 0 0 -1 132 27)" stroke="black" stroke-opacity="0.5" stroke-width="5"/>
<path d="M103 56L138 21" stroke="black" stroke-width="5"/>
<circle cx="6" cy="6" r="6" transform="matrix(1 0 0 -1 256 62)" fill="black"/>
<circle cx="6" cy="6" r="8.5" transform="matrix(1 0 0 -1 256 62)" stroke="black" stroke-opacity="0.5" stroke-width="5"/>
<circle cx="6" cy="6" r="6" transform="matrix(1 0 0 -1 291 27)" fill="black"/>
<circle cx="6" cy="6" r="8.5" transform="matrix(1 0 0 -1 291 27)" stroke="black" stroke-opacity="0.5" stroke-width="5"/>
<path d="M262 56L297 21" stroke="black" stroke-width="5"/>
</svg>
