<svg width="324" height="86" viewBox="0 0 324 86" fill="none" xmlns="http://www.w3.org/2000/svg">
<rect y="11.8537" width="80" height="74.1463" rx="10" fill="#9E5817"/>
<rect y="6" width="80" height="70.2439" rx="10" fill="#EDB878"/>
<rect y="8.92682" width="80" height="72.1951" rx="10" fill="#E29536"/>
<rect x="3.90247" y="10.8781" width="72.1951" height="66.3415" rx="10" fill="#F2A950"/>
<rect x="80" y="7" width="80" height="79" rx="10" fill="#9E5817"/>
<rect x="80" y="1" width="80" height="70.2439" rx="10" fill="#EDB878"/>
<rect x="80" y="3.92682" width="80" height="72.1951" rx="10" fill="#E29536"/>
<rect x="83.9025" y="5.87805" width="72.1951" height="66.3415" rx="10" fill="#F2A950"/>
<rect x="160" y="10" width="82" height="76" rx="10" fill="#179E8A"/>
<rect x="160" y="4" width="82" height="72" rx="10" fill="#78EDDB"/>
<rect x="160" y="7" width="82" height="74" rx="10" fill="#36E2C8"/>
<rect x="164" y="9" width="74" height="68" rx="10" fill="#50F2DA"/>
<rect x="242" y="6" width="82" height="80" rx="10" fill="#179E8A"/>
<rect x="242" width="82" height="72" rx="10" fill="#78EDDB"/>
<rect x="242" y="3" width="82" height="74" rx="10" fill="#36E2C8"/>
<rect x="246" y="5" width="74" height="68" rx="10" fill="#50F2DA"/>
<circle cx="6" cy="6" r="6" transform="matrix(1 0 0 -1 17 69)" fill="black"/>
<circle cx="6" cy="6" r="8.5" transform="matrix(1 0 0 -1 17 69)" stroke="black" stroke-opacity="0.5" stroke-width="5"/>
<circle cx="6" cy="6" r="6" transform="matrix(1 0 0 -1 52 34)" fill="black"/>
<circle cx="6" cy="6" r="8.5" transform="matrix(1 0 0 -1 52 34)" stroke="black" stroke-opacity="0.5" stroke-width="5"/>
<circle cx="6" cy="6" r="6" transform="matrix(1 0 0 -1 179 69)" fill="black"/>
<circle cx="6" cy="6" r="8.5" transform="matrix(1 0 0 -1 179 69)" stroke="black" stroke-opacity="0.5" stroke-width="5"/>
<circle cx="6" cy="6" r="6" transform="matrix(1 0 0 -1 214 34)" fill="black"/>
<circle cx="6" cy="6" r="8.5" transform="matrix(1 0 0 -1 214 34)" stroke="black" stroke-opacity="0.5" stroke-width="5"/>
<circle cx="6" cy="6" r="6" transform="matrix(1 0 0 -1 97 63)" fill="black"/>
<circle cx="6" cy="6" r="8.5" transform="matrix(1 0 0 -1 97 63)" stroke="black" stroke-opacity="0.5" stroke-width="5"/>
<path d="M23 63L58 28" stroke="black" stroke-width="5"/>
<circle cx="6" cy="6" r="6" transform="matrix(1 0 0 -1 132 28)" fill="black"/>
<circle cx="6" cy="6" r="8.5" transform="matrix(1 0 0 -1 132 28)" stroke="black" stroke-opacity="0.5" stroke-width="5"/>
<circle cx="6" cy="6" r="6" transform="matrix(1 0 0 -1 259 63)" fill="black"/>
<circle cx="6" cy="6" r="8.5" transform="matrix(1 0 0 -1 259 63)" stroke="black" stroke-opacity="0.5" stroke-width="5"/>
<path d="M185 63L220 28" stroke="black" stroke-width="5"/>
<circle cx="6" cy="6" r="6" transform="matrix(1 0 0 -1 294 28)" fill="black"/>
<circle cx="6" cy="6" r="8.5" transform="matrix(1 0 0 -1 294 28)" stroke="black" stroke-opacity="0.5" stroke-width="5"/>
<path d="M103 57L138 22" stroke="black" stroke-width="5"/>
<path d="M265 57L300 22" stroke="black" stroke-width="5"/>
</svg>
