<svg width="319" height="85" viewBox="0 0 319 85" fill="none" xmlns="http://www.w3.org/2000/svg">
<rect y="10.8537" width="80" height="74.1463" rx="10" fill="#9E5817"/>
<rect y="5" width="80" height="70.2439" rx="10" fill="#EDB878"/>
<rect y="7.92683" width="80" height="72.1951" rx="10" fill="#E29536"/>
<rect x="3.90247" y="9.87805" width="72.1951" height="66.3415" rx="10" fill="#F2A950"/>
<rect x="80" y="6" width="80" height="79" rx="10" fill="#9E5817"/>
<rect x="80" width="80" height="70.2439" rx="10" fill="#EDB878"/>
<rect x="80" y="2.92683" width="80" height="72.1951" rx="10" fill="#E29536"/>
<rect x="83.9025" y="4.87805" width="72.1951" height="66.3415" rx="10" fill="#F2A950"/>
<rect x="159" y="10.8537" width="80" height="74.1463" rx="10" fill="#179E8A"/>
<rect x="159" y="5" width="80" height="70.2439" rx="10" fill="#78EDDB"/>
<rect x="159" y="7.92683" width="80" height="72.1951" rx="10" fill="#36E2C8"/>
<rect x="162.902" y="9.87805" width="72.1951" height="66.3415" rx="10" fill="#50F2DA"/>
<rect x="239" y="5.93024" width="80" height="79.0698" rx="10" fill="#179E8A"/>
<rect x="239" width="80" height="71.1628" rx="10" fill="#78EDDB"/>
<rect x="239" y="2.96512" width="80" height="73.1395" rx="10" fill="#36E2C8"/>
<rect x="242.902" y="4.94186" width="72.1951" height="67.2093" rx="10" fill="#50F2DA"/>
<circle cx="8" cy="8" r="8" transform="matrix(1 0 0 -1 32 66)" fill="black"/>
<circle cx="8" cy="8" r="10.5" transform="matrix(1 0 0 -1 32 66)" stroke="black" stroke-opacity="0.5" stroke-width="5"/>
<path d="M40 17C26.3158 17 20 24.2 20 24.2C20 24.2 20 28.8286 29.4737 38.0857C39.4875 47.8706 40 59.8571 40 68.4286C40 59.8571 40.7575 47.6312 50.5263 38.0857C60 28.8286 60 24.2 60 24.2C60 24.2 53.6842 17 40 17Z" fill="black" fill-opacity="0.7"/>
<path d="M22.5195 26.9881C21.9812 25.9362 21.7264 25.1788 21.6062 24.7153C21.7565 24.5759 21.9423 24.4105 22.1638 24.225C22.9033 23.6056 24.0397 22.7634 25.5885 21.9159C28.6789 20.2248 33.4332 18.5 40 18.5C46.5668 18.5 51.3211 20.2248 54.4115 21.9159C55.9603 22.7634 57.0967 23.6056 57.8362 24.225C58.0577 24.4105 58.2435 24.5759 58.3938 24.7153C58.2736 25.1788 58.0188 25.9362 57.4805 26.9881C56.3873 29.1245 54.1289 32.4682 49.478 37.0128C44.2207 42.15 41.4679 48.0215 40.0338 53.6864C38.6262 48.0815 35.8776 42.246 30.522 37.0128C25.8711 32.4682 23.6127 29.1245 22.5195 26.9881Z" stroke="black" stroke-opacity="0.9" stroke-width="3"/>
<circle cx="8" cy="8" r="8" transform="matrix(1 0 0 -1 112 61)" fill="black"/>
<circle cx="8" cy="8" r="10.5" transform="matrix(1 0 0 -1 112 61)" stroke="black" stroke-opacity="0.5" stroke-width="5"/>
<path d="M120 12C106.316 12 100 19.2 100 19.2C100 19.2 100 23.8286 109.474 33.0857C119.488 42.8706 120 54.8571 120 63.4286C120 54.8571 120.758 42.6312 130.526 33.0857C140 23.8286 140 19.2 140 19.2C140 19.2 133.684 12 120 12Z" fill="black" fill-opacity="0.7"/>
<path d="M102.52 21.9881C101.981 20.9362 101.726 20.1788 101.606 19.7153C101.757 19.5759 101.942 19.4105 102.164 19.225C102.903 18.6056 104.04 17.7634 105.588 16.9159C108.679 15.2248 113.433 13.5 120 13.5C126.567 13.5 131.321 15.2248 134.412 16.9159C135.96 17.7634 137.097 18.6056 137.836 19.225C138.058 19.4105 138.243 19.5759 138.394 19.7153C138.274 20.1788 138.019 20.9362 137.48 21.9881C136.387 24.1245 134.129 27.4682 129.478 32.0128C124.221 37.15 121.468 43.0215 120.034 48.6864C118.626 43.0815 115.878 37.246 110.522 32.0128C105.871 27.4682 103.613 24.1245 102.52 21.9881Z" stroke="black" stroke-opacity="0.9" stroke-width="3"/>
<circle cx="8" cy="8" r="8" transform="matrix(1 0 0 -1 272 61)" fill="black"/>
<circle cx="8" cy="8" r="10.5" transform="matrix(1 0 0 -1 272 61)" stroke="black" stroke-opacity="0.5" stroke-width="5"/>
<path d="M280 12C266.316 12 260 19.2 260 19.2C260 19.2 260 23.8286 269.474 33.0857C279.488 42.8706 280 54.8571 280 63.4286C280 54.8571 280.758 42.6312 290.526 33.0857C300 23.8286 300 19.2 300 19.2C300 19.2 293.684 12 280 12Z" fill="black" fill-opacity="0.7"/>
<path d="M262.52 21.9881C261.981 20.9362 261.726 20.1788 261.606 19.7153C261.757 19.5759 261.942 19.4105 262.164 19.225C262.903 18.6056 264.04 17.7634 265.588 16.9159C268.679 15.2248 273.433 13.5 280 13.5C286.567 13.5 291.321 15.2248 294.412 16.9159C295.96 17.7634 297.097 18.6056 297.836 19.225C298.058 19.4105 298.243 19.5759 298.394 19.7153C298.274 20.1788 298.019 20.9362 297.48 21.9881C296.387 24.1245 294.129 27.4682 289.478 32.0128C284.221 37.15 281.468 43.0215 280.034 48.6864C278.626 43.0815 275.878 37.246 270.522 32.0128C265.871 27.4682 263.613 24.1245 262.52 21.9881Z" stroke="black" stroke-opacity="0.9" stroke-width="3"/>
<circle cx="8" cy="8" r="8" transform="matrix(1 0 0 -1 191 66)" fill="black"/>
<circle cx="8" cy="8" r="10.5" transform="matrix(1 0 0 -1 191 66)" stroke="black" stroke-opacity="0.5" stroke-width="5"/>
<path d="M199 17C185.316 17 179 24.2 179 24.2C179 24.2 179 28.8286 188.474 38.0857C198.488 47.8706 199 59.8571 199 68.4286C199 59.8571 199.758 47.6312 209.526 38.0857C219 28.8286 219 24.2 219 24.2C219 24.2 212.684 17 199 17Z" fill="black" fill-opacity="0.7"/>
<path d="M181.52 26.9881C180.981 25.9362 180.726 25.1788 180.606 24.7153C180.757 24.5759 180.942 24.4105 181.164 24.225C181.903 23.6056 183.04 22.7634 184.588 21.9159C187.679 20.2248 192.433 18.5 199 18.5C205.567 18.5 210.321 20.2248 213.412 21.9159C214.96 22.7634 216.097 23.6056 216.836 24.225C217.058 24.4105 217.243 24.5759 217.394 24.7153C217.274 25.1788 217.019 25.9362 216.48 26.9881C215.387 29.1245 213.129 32.4682 208.478 37.0128C203.221 42.15 200.468 48.0215 199.034 53.6864C197.626 48.0815 194.878 42.246 189.522 37.0128C184.871 32.4682 182.613 29.1245 181.52 26.9881Z" stroke="black" stroke-opacity="0.9" stroke-width="3"/>
</svg>
