<svg width="200" height="54" viewBox="0 0 200 54" fill="none" xmlns="http://www.w3.org/2000/svg">
<rect y="6.78351" width="50" height="46.3415" rx="10" fill="#9E5817"/>
<rect y="3.125" width="50" height="43.9024" rx="10" fill="#EDB878"/>
<rect y="4.95425" width="50" height="45.122" rx="10" fill="#E29536"/>
<rect x="2.43903" y="6.17377" width="45.122" height="41.4634" rx="10" fill="#F2A950"/>
<rect x="100" y="6.78351" width="50" height="46.3415" rx="10" fill="#179E8A"/>
<rect x="100" y="3.125" width="50" height="43.9024" rx="10" fill="#78EDDB"/>
<rect x="100" y="4.95425" width="50" height="45.122" rx="10" fill="#36E2C8"/>
<rect x="102.439" y="6.17377" width="45.122" height="41.4634" rx="10" fill="#50F2DA"/>
<rect x="50" y="3.75" width="50" height="49.375" rx="10" fill="#9E5817"/>
<rect x="50" width="50" height="43.9024" rx="10" fill="#EDB878"/>
<rect x="50" y="1.82925" width="50" height="45.122" rx="10" fill="#E29536"/>
<rect x="52.439" y="3.04877" width="45.122" height="41.4634" rx="10" fill="#F2A950"/>
<rect x="150" y="3.70639" width="50" height="49.4186" rx="10" fill="#179E8A"/>
<rect x="150" width="50" height="44.4767" rx="10" fill="#78EDDB"/>
<rect x="150" y="1.85318" width="50" height="45.7122" rx="10" fill="#36E2C8"/>
<rect x="152.439" y="3.08865" width="45.122" height="42.0058" rx="10" fill="#50F2DA"/>
<g clip-path="url(#clip0_684_6)">
<path d="M24.5707 11.6486C31.7419 11.6486 24.5707 25.3816 24.5707 25.3816C24.5707 25.3816 17.6522 11.6486 24.5707 11.6486ZM25.9247 26.0341C28.6307 21.7316 32.7266 9 24.5707 9C16.516 9 20.5209 21.751 23.2246 26.0466L14 25.2614V26.9505V28.6403L23.7709 27.8091L22.8884 45H24.5707H26.253L25.3711 27.8216L35.0002 28.6403V26.9505V25.2614L25.9247 26.0341Z" fill="black"/>
</g>
<g clip-path="url(#clip1_684_6)">
<path d="M124.571 11.6486C131.742 11.6486 124.571 25.3816 124.571 25.3816C124.571 25.3816 117.652 11.6486 124.571 11.6486ZM125.925 26.0341C128.631 21.7316 132.727 9 124.571 9C116.516 9 120.521 21.751 123.225 26.0466L114 25.2614V26.9505V28.6403L123.771 27.8091L122.888 45H124.571H126.253L125.371 27.8216L135 28.6403V26.9505V25.2614L125.925 26.0341Z" fill="black"/>
</g>
<g clip-path="url(#clip2_684_6)">
<path d="M73.5707 8.64863C80.7419 8.64863 73.5707 22.3816 73.5707 22.3816C73.5707 22.3816 66.6522 8.64863 73.5707 8.64863ZM74.9247 23.0341C77.6307 18.7316 81.7266 6 73.5707 6C65.516 6 69.5209 18.751 72.2246 23.0466L63 22.2614V23.9505V25.6403L72.7709 24.8091L71.8884 42H73.5707H75.253L74.3711 24.8216L84.0002 25.6403V23.9505V22.2614L74.9247 23.0341Z" fill="black"/>
</g>
<g clip-path="url(#clip3_684_6)">
<path d="M173.571 8.64863C180.742 8.64863 173.571 22.3816 173.571 22.3816C173.571 22.3816 166.652 8.64863 173.571 8.64863ZM174.925 23.0341C177.631 18.7316 181.727 6 173.571 6C165.516 6 169.521 18.751 172.225 23.0466L163 22.2614V23.9505V25.6403L172.771 24.8091L171.888 42H173.571H175.253L174.371 24.8216L184 25.6403V23.9505V22.2614L174.925 23.0341Z" fill="black"/>
</g>
<defs>
<clipPath id="clip0_684_6">
<rect width="21" height="36" fill="white" transform="translate(14 9)"/>
</clipPath>
<clipPath id="clip1_684_6">
<rect width="21" height="36" fill="white" transform="translate(114 9)"/>
</clipPath>
<clipPath id="clip2_684_6">
<rect width="21" height="36" fill="white" transform="translate(63 6)"/>
</clipPath>
<clipPath id="clip3_684_6">
<rect width="21" height="36" fill="white" transform="translate(163 6)"/>
</clipPath>
</defs>
</svg>
