<svg width="319" height="85" viewBox="0 0 319 85" fill="none" xmlns="http://www.w3.org/2000/svg">
<rect y="10.8537" width="80" height="74.1463" rx="10" fill="#9E5817"/>
<rect y="5" width="80" height="70.2439" rx="10" fill="#EDB878"/>
<rect y="7.92683" width="80" height="72.1951" rx="10" fill="#E29536"/>
<rect x="3.90247" y="9.87805" width="72.1951" height="66.3415" rx="10" fill="#F2A950"/>
<rect x="80" y="6" width="80" height="79" rx="10" fill="#9E5817"/>
<rect x="80" width="80" height="70.2439" rx="10" fill="#EDB878"/>
<rect x="80" y="2.92683" width="80" height="72.1951" rx="10" fill="#E29536"/>
<rect x="83.9025" y="4.87805" width="72.1951" height="66.3415" rx="10" fill="#F2A950"/>
<rect x="159" y="10.8537" width="80" height="74.1463" rx="10" fill="#179E8A"/>
<rect x="159" y="5" width="80" height="70.2439" rx="10" fill="#78EDDB"/>
<rect x="159" y="7.92683" width="80" height="72.1951" rx="10" fill="#36E2C8"/>
<rect x="162.902" y="9.87805" width="72.1951" height="66.3415" rx="10" fill="#50F2DA"/>
<rect x="239" y="5.93024" width="80" height="79.0698" rx="10" fill="#179E8A"/>
<rect x="239" width="80" height="71.1628" rx="10" fill="#78EDDB"/>
<rect x="239" y="2.96512" width="80" height="73.1395" rx="10" fill="#36E2C8"/>
<rect x="242.902" y="4.94186" width="72.1951" height="67.2093" rx="10" fill="#50F2DA"/>
<circle cx="6" cy="6" r="6" transform="matrix(1 0 0 -1 34 49)" fill="black"/>
<circle cx="6" cy="6" r="8.5" transform="matrix(1 0 0 -1 34 49)" stroke="black" stroke-opacity="0.5" stroke-width="5"/>
<path d="M64 68C64.5523 68 65 67.5523 65 67V58C65 57.4477 64.5523 57 64 57C63.4477 57 63 57.4477 63 58V66H55C54.4477 66 54 66.4477 54 67C54 67.5523 54.4477 68 55 68H64ZM52.7071 54.2929C52.3166 53.9024 51.6834 53.9024 51.2929 54.2929C50.9024 54.6834 50.9024 55.3166 51.2929 55.7071L52.7071 54.2929ZM64.7071 66.2929L58.7071 60.2929L57.2929 61.7071L63.2929 67.7071L64.7071 66.2929ZM58.7071 60.2929L52.7071 54.2929L51.2929 55.7071L57.2929 61.7071L58.7071 60.2929Z" fill="black"/>
<path d="M28.7071 55.7071C29.0976 55.3166 29.0976 54.6834 28.7071 54.2929C28.3166 53.9024 27.6834 53.9024 27.2929 54.2929L28.7071 55.7071ZM15 67C15 67.5523 15.4477 68 16 68H25C25.5523 68 26 67.5523 26 67C26 66.4477 25.5523 66 25 66H17V58C17 57.4477 16.5523 57 16 57C15.4477 57 15 57.4477 15 58L15 67ZM27.2929 54.2929L15.2929 66.2929L16.7071 67.7071L28.7071 55.7071L27.2929 54.2929Z" fill="black"/>
<path d="M27.2929 31.7071C27.6834 32.0976 28.3166 32.0976 28.7071 31.7071C29.0976 31.3166 29.0976 30.6834 28.7071 30.2929L27.2929 31.7071ZM16 18C15.4477 18 15 18.4477 15 19L15 28C15 28.5523 15.4477 29 16 29C16.5523 29 17 28.5523 17 28L17 20L25 20C25.5523 20 26 19.5523 26 19C26 18.4477 25.5523 18 25 18L16 18ZM28.7071 30.2929L16.7071 18.2929L15.2929 19.7071L27.2929 31.7071L28.7071 30.2929Z" fill="black"/>
<path d="M51.2929 30.2929C50.9024 30.6834 50.9024 31.3166 51.2929 31.7071C51.6834 32.0976 52.3166 32.0976 52.7071 31.7071L51.2929 30.2929ZM65 19C65 18.4477 64.5523 18 64 18L55 18C54.4477 18 54 18.4477 54 19C54 19.5523 54.4477 20 55 20H63V28C63 28.5523 63.4477 29 64 29C64.5523 29 65 28.5523 65 28V19ZM52.7071 31.7071L64.7071 19.7071L63.2929 18.2929L51.2929 30.2929L52.7071 31.7071Z" fill="black"/>
<circle cx="6" cy="6" r="6" transform="matrix(1 0 0 -1 193 49)" fill="black"/>
<circle cx="6" cy="6" r="8.5" transform="matrix(1 0 0 -1 193 49)" stroke="black" stroke-opacity="0.5" stroke-width="5"/>
<path d="M223 68C223.552 68 224 67.5523 224 67V58C224 57.4477 223.552 57 223 57C222.448 57 222 57.4477 222 58V66H214C213.448 66 213 66.4477 213 67C213 67.5523 213.448 68 214 68H223ZM211.707 54.2929C211.317 53.9024 210.683 53.9024 210.293 54.2929C209.902 54.6834 209.902 55.3166 210.293 55.7071L211.707 54.2929ZM223.707 66.2929L217.707 60.2929L216.293 61.7071L222.293 67.7071L223.707 66.2929ZM217.707 60.2929L211.707 54.2929L210.293 55.7071L216.293 61.7071L217.707 60.2929Z" fill="black"/>
<path d="M187.707 55.7071C188.098 55.3166 188.098 54.6834 187.707 54.2929C187.317 53.9024 186.683 53.9024 186.293 54.2929L187.707 55.7071ZM174 67C174 67.5523 174.448 68 175 68H184C184.552 68 185 67.5523 185 67C185 66.4477 184.552 66 184 66H176V58C176 57.4477 175.552 57 175 57C174.448 57 174 57.4477 174 58V67ZM186.293 54.2929L174.293 66.2929L175.707 67.7071L187.707 55.7071L186.293 54.2929Z" fill="black"/>
<path d="M186.293 31.7071C186.683 32.0976 187.317 32.0976 187.707 31.7071C188.098 31.3166 188.098 30.6834 187.707 30.2929L186.293 31.7071ZM175 18C174.448 18 174 18.4477 174 19L174 28C174 28.5523 174.448 29 175 29C175.552 29 176 28.5523 176 28L176 20L184 20C184.552 20 185 19.5523 185 19C185 18.4477 184.552 18 184 18L175 18ZM187.707 30.2929L175.707 18.2929L174.293 19.7071L186.293 31.7071L187.707 30.2929Z" fill="black"/>
<path d="M210.293 30.2929C209.902 30.6834 209.902 31.3166 210.293 31.7071C210.683 32.0976 211.317 32.0976 211.707 31.7071L210.293 30.2929ZM224 19C224 18.4477 223.552 18 223 18L214 18C213.448 18 213 18.4477 213 19C213 19.5523 213.448 20 214 20H222V28C222 28.5523 222.448 29 223 29C223.552 29 224 28.5523 224 28V19ZM211.707 31.7071L223.707 19.7071L222.293 18.2929L210.293 30.2929L211.707 31.7071Z" fill="black"/>
<circle cx="6" cy="6" r="6" transform="matrix(1 0 0 -1 115 44)" fill="black"/>
<circle cx="6" cy="6" r="8.5" transform="matrix(1 0 0 -1 115 44)" stroke="black" stroke-opacity="0.5" stroke-width="5"/>
<path d="M145 63C145.552 63 146 62.5523 146 62V53C146 52.4477 145.552 52 145 52C144.448 52 144 52.4477 144 53V61H136C135.448 61 135 61.4477 135 62C135 62.5523 135.448 63 136 63H145ZM133.707 49.2929C133.317 48.9024 132.683 48.9024 132.293 49.2929C131.902 49.6834 131.902 50.3166 132.293 50.7071L133.707 49.2929ZM145.707 61.2929L139.707 55.2929L138.293 56.7071L144.293 62.7071L145.707 61.2929ZM139.707 55.2929L133.707 49.2929L132.293 50.7071L138.293 56.7071L139.707 55.2929Z" fill="black"/>
<path d="M109.707 50.7071C110.098 50.3166 110.098 49.6834 109.707 49.2929C109.317 48.9024 108.683 48.9024 108.293 49.2929L109.707 50.7071ZM96 62C96 62.5523 96.4477 63 97 63H106C106.552 63 107 62.5523 107 62C107 61.4477 106.552 61 106 61H98V53C98 52.4477 97.5523 52 97 52C96.4477 52 96 52.4477 96 53V62ZM108.293 49.2929L96.2929 61.2929L97.7071 62.7071L109.707 50.7071L108.293 49.2929Z" fill="black"/>
<path d="M108.293 26.7071C108.683 27.0976 109.317 27.0976 109.707 26.7071C110.098 26.3166 110.098 25.6834 109.707 25.2929L108.293 26.7071ZM97 13C96.4477 13 96 13.4477 96 14L96 23C96 23.5523 96.4477 24 97 24C97.5523 24 98 23.5523 98 23L98 15L106 15C106.552 15 107 14.5523 107 14C107 13.4477 106.552 13 106 13L97 13ZM109.707 25.2929L97.7071 13.2929L96.2929 14.7071L108.293 26.7071L109.707 25.2929Z" fill="black"/>
<path d="M132.293 25.2929C131.902 25.6834 131.902 26.3166 132.293 26.7071C132.683 27.0976 133.317 27.0976 133.707 26.7071L132.293 25.2929ZM146 14C146 13.4477 145.552 13 145 13L136 13C135.448 13 135 13.4477 135 14C135 14.5523 135.448 15 136 15H144V23C144 23.5523 144.448 24 145 24C145.552 24 146 23.5523 146 23V14ZM133.707 26.7071L145.707 14.7071L144.293 13.2929L132.293 25.2929L133.707 26.7071Z" fill="black"/>
<circle cx="6" cy="6" r="6" transform="matrix(1 0 0 -1 274 44)" fill="black"/>
<circle cx="6" cy="6" r="8.5" transform="matrix(1 0 0 -1 274 44)" stroke="black" stroke-opacity="0.5" stroke-width="5"/>
<path d="M304 63C304.552 63 305 62.5523 305 62V53C305 52.4477 304.552 52 304 52C303.448 52 303 52.4477 303 53V61H295C294.448 61 294 61.4477 294 62C294 62.5523 294.448 63 295 63H304ZM292.707 49.2929C292.317 48.9024 291.683 48.9024 291.293 49.2929C290.902 49.6834 290.902 50.3166 291.293 50.7071L292.707 49.2929ZM304.707 61.2929L298.707 55.2929L297.293 56.7071L303.293 62.7071L304.707 61.2929ZM298.707 55.2929L292.707 49.2929L291.293 50.7071L297.293 56.7071L298.707 55.2929Z" fill="black"/>
<path d="M268.707 50.7071C269.098 50.3166 269.098 49.6834 268.707 49.2929C268.317 48.9024 267.683 48.9024 267.293 49.2929L268.707 50.7071ZM255 62C255 62.5523 255.448 63 256 63H265C265.552 63 266 62.5523 266 62C266 61.4477 265.552 61 265 61H257V53C257 52.4477 256.552 52 256 52C255.448 52 255 52.4477 255 53V62ZM267.293 49.2929L255.293 61.2929L256.707 62.7071L268.707 50.7071L267.293 49.2929Z" fill="black"/>
<path d="M267.293 26.7071C267.683 27.0976 268.317 27.0976 268.707 26.7071C269.098 26.3166 269.098 25.6834 268.707 25.2929L267.293 26.7071ZM256 13C255.448 13 255 13.4477 255 14L255 23C255 23.5523 255.448 24 256 24C256.552 24 257 23.5523 257 23L257 15L265 15C265.552 15 266 14.5523 266 14C266 13.4477 265.552 13 265 13L256 13ZM268.707 25.2929L256.707 13.2929L255.293 14.7071L267.293 26.7071L268.707 25.2929Z" fill="black"/>
<path d="M291.293 25.2929C290.902 25.6834 290.902 26.3166 291.293 26.7071C291.683 27.0976 292.317 27.0976 292.707 26.7071L291.293 25.2929ZM305 14C305 13.4477 304.552 13 304 13L295 13C294.448 13 294 13.4477 294 14C294 14.5523 294.448 15 295 15H303V23C303 23.5523 303.448 24 304 24C304.552 24 305 23.5523 305 23V14ZM292.707 26.7071L304.707 14.7071L303.293 13.2929L291.293 25.2929L292.707 26.7071Z" fill="black"/>
</svg>
