<svg width="324" height="86" viewBox="0 0 324 86" fill="none" xmlns="http://www.w3.org/2000/svg">
<rect y="11.8537" width="80" height="74.1463" rx="10" fill="#9E5817"/>
<rect y="6" width="80" height="70.2439" rx="10" fill="#EDB878"/>
<rect y="8.92683" width="80" height="72.1951" rx="10" fill="#E29536"/>
<rect x="3.90247" y="10.8781" width="72.1951" height="66.3415" rx="10" fill="#F2A950"/>
<rect x="80" y="7" width="80" height="79" rx="10" fill="#9E5817"/>
<rect x="80" y="1" width="80" height="70.2439" rx="10" fill="#EDB878"/>
<rect x="80" y="3.92683" width="80" height="72.1951" rx="10" fill="#E29536"/>
<rect x="83.9025" y="5.87805" width="72.1951" height="66.3415" rx="10" fill="#F2A950"/>
<rect x="160" y="10" width="82" height="76" rx="10" fill="#179E8A"/>
<rect x="160" y="4" width="82" height="72" rx="10" fill="#78EDDB"/>
<rect x="160" y="7" width="82" height="74" rx="10" fill="#36E2C8"/>
<rect x="164" y="9" width="74" height="68" rx="10" fill="#50F2DA"/>
<rect x="242" y="6" width="82" height="80" rx="10" fill="#179E8A"/>
<rect x="242" width="82" height="72" rx="10" fill="#78EDDB"/>
<rect x="242" y="3" width="82" height="74" rx="10" fill="#36E2C8"/>
<rect x="246" y="5" width="74" height="68" rx="10" fill="#50F2DA"/>
<circle cx="6" cy="6" r="6" transform="matrix(1 0 0 -1 34 50)" fill="black"/>
<circle cx="6" cy="6" r="8.5" transform="matrix(1 0 0 -1 34 50)" stroke="black" stroke-opacity="0.5" stroke-width="5"/>
<path d="M64 69C64.5523 69 65 68.5523 65 68V59C65 58.4477 64.5523 58 64 58C63.4477 58 63 58.4477 63 59V67H55C54.4477 67 54 67.4477 54 68C54 68.5523 54.4477 69 55 69H64ZM52.7071 55.2929C52.3166 54.9024 51.6834 54.9024 51.2929 55.2929C50.9024 55.6834 50.9024 56.3166 51.2929 56.7071L52.7071 55.2929ZM64.7071 67.2929L58.7071 61.2929L57.2929 62.7071L63.2929 68.7071L64.7071 67.2929ZM58.7071 61.2929L52.7071 55.2929L51.2929 56.7071L57.2929 62.7071L58.7071 61.2929Z" fill="black"/>
<path d="M28.7071 56.7071C29.0976 56.3166 29.0976 55.6834 28.7071 55.2929C28.3166 54.9024 27.6834 54.9024 27.2929 55.2929L28.7071 56.7071ZM15 68C15 68.5523 15.4477 69 16 69H25C25.5523 69 26 68.5523 26 68C26 67.4477 25.5523 67 25 67H17V59C17 58.4477 16.5523 58 16 58C15.4477 58 15 58.4477 15 59L15 68ZM27.2929 55.2929L15.2929 67.2929L16.7071 68.7071L28.7071 56.7071L27.2929 55.2929Z" fill="black"/>
<path d="M27.2929 32.7071C27.6834 33.0976 28.3166 33.0976 28.7071 32.7071C29.0976 32.3166 29.0976 31.6834 28.7071 31.2929L27.2929 32.7071ZM16 19C15.4477 19 15 19.4477 15 20L15 29C15 29.5523 15.4477 30 16 30C16.5523 30 17 29.5523 17 29L17 21L25 21C25.5523 21 26 20.5523 26 20C26 19.4477 25.5523 19 25 19L16 19ZM28.7071 31.2929L16.7071 19.2929L15.2929 20.7071L27.2929 32.7071L28.7071 31.2929Z" fill="black"/>
<path d="M51.2929 31.2929C50.9024 31.6834 50.9024 32.3166 51.2929 32.7071C51.6834 33.0976 52.3166 33.0976 52.7071 32.7071L51.2929 31.2929ZM65 20C65 19.4477 64.5523 19 64 19L55 19C54.4477 19 54 19.4477 54 20C54 20.5523 54.4477 21 55 21H63V29C63 29.5523 63.4477 30 64 30C64.5523 30 65 29.5523 65 29V20ZM52.7071 32.7071L64.7071 20.7071L63.2929 19.2929L51.2929 31.2929L52.7071 32.7071Z" fill="black"/>
<circle cx="6" cy="6" r="6" transform="matrix(1 0 0 -1 196 50)" fill="black"/>
<circle cx="6" cy="6" r="8.5" transform="matrix(1 0 0 -1 196 50)" stroke="black" stroke-opacity="0.5" stroke-width="5"/>
<path d="M226 69C226.552 69 227 68.5523 227 68V59C227 58.4477 226.552 58 226 58C225.448 58 225 58.4477 225 59V67H217C216.448 67 216 67.4477 216 68C216 68.5523 216.448 69 217 69H226ZM214.707 55.2929C214.317 54.9024 213.683 54.9024 213.293 55.2929C212.902 55.6834 212.902 56.3166 213.293 56.7071L214.707 55.2929ZM226.707 67.2929L220.707 61.2929L219.293 62.7071L225.293 68.7071L226.707 67.2929ZM220.707 61.2929L214.707 55.2929L213.293 56.7071L219.293 62.7071L220.707 61.2929Z" fill="black"/>
<path d="M190.707 56.7071C191.098 56.3166 191.098 55.6834 190.707 55.2929C190.317 54.9024 189.683 54.9024 189.293 55.2929L190.707 56.7071ZM177 68C177 68.5523 177.448 69 178 69H187C187.552 69 188 68.5523 188 68C188 67.4477 187.552 67 187 67H179V59C179 58.4477 178.552 58 178 58C177.448 58 177 58.4477 177 59V68ZM189.293 55.2929L177.293 67.2929L178.707 68.7071L190.707 56.7071L189.293 55.2929Z" fill="black"/>
<path d="M189.293 32.7071C189.683 33.0976 190.317 33.0976 190.707 32.7071C191.098 32.3166 191.098 31.6834 190.707 31.2929L189.293 32.7071ZM178 19C177.448 19 177 19.4477 177 20L177 29C177 29.5523 177.448 30 178 30C178.552 30 179 29.5523 179 29L179 21L187 21C187.552 21 188 20.5523 188 20C188 19.4477 187.552 19 187 19L178 19ZM190.707 31.2929L178.707 19.2929L177.293 20.7071L189.293 32.7071L190.707 31.2929Z" fill="black"/>
<path d="M213.293 31.2929C212.902 31.6834 212.902 32.3166 213.293 32.7071C213.683 33.0976 214.317 33.0976 214.707 32.7071L213.293 31.2929ZM227 20C227 19.4477 226.552 19 226 19L217 19C216.448 19 216 19.4477 216 20C216 20.5523 216.448 21 217 21H225V29C225 29.5523 225.448 30 226 30C226.552 30 227 29.5523 227 29V20ZM214.707 32.7071L226.707 20.7071L225.293 19.2929L213.293 31.2929L214.707 32.7071Z" fill="black"/>
<circle cx="6" cy="6" r="6" transform="matrix(1 0 0 -1 115 45)" fill="black"/>
<circle cx="6" cy="6" r="8.5" transform="matrix(1 0 0 -1 115 45)" stroke="black" stroke-opacity="0.5" stroke-width="5"/>
<path d="M145 64C145.552 64 146 63.5523 146 63V54C146 53.4477 145.552 53 145 53C144.448 53 144 53.4477 144 54V62H136C135.448 62 135 62.4477 135 63C135 63.5523 135.448 64 136 64H145ZM133.707 50.2929C133.317 49.9024 132.683 49.9024 132.293 50.2929C131.902 50.6834 131.902 51.3166 132.293 51.7071L133.707 50.2929ZM145.707 62.2929L139.707 56.2929L138.293 57.7071L144.293 63.7071L145.707 62.2929ZM139.707 56.2929L133.707 50.2929L132.293 51.7071L138.293 57.7071L139.707 56.2929Z" fill="black"/>
<path d="M109.707 51.7071C110.098 51.3166 110.098 50.6834 109.707 50.2929C109.317 49.9024 108.683 49.9024 108.293 50.2929L109.707 51.7071ZM96 63C96 63.5523 96.4477 64 97 64H106C106.552 64 107 63.5523 107 63C107 62.4477 106.552 62 106 62H98V54C98 53.4477 97.5523 53 97 53C96.4477 53 96 53.4477 96 54V63ZM108.293 50.2929L96.2929 62.2929L97.7071 63.7071L109.707 51.7071L108.293 50.2929Z" fill="black"/>
<path d="M108.293 27.7071C108.683 28.0976 109.317 28.0976 109.707 27.7071C110.098 27.3166 110.098 26.6834 109.707 26.2929L108.293 27.7071ZM97 14C96.4477 14 96 14.4477 96 15L96 24C96 24.5523 96.4477 25 97 25C97.5523 25 98 24.5523 98 24L98 16L106 16C106.552 16 107 15.5523 107 15C107 14.4477 106.552 14 106 14L97 14ZM109.707 26.2929L97.7071 14.2929L96.2929 15.7071L108.293 27.7071L109.707 26.2929Z" fill="black"/>
<path d="M132.293 26.2929C131.902 26.6834 131.902 27.3166 132.293 27.7071C132.683 28.0976 133.317 28.0976 133.707 27.7071L132.293 26.2929ZM146 15C146 14.4477 145.552 14 145 14L136 14C135.448 14 135 14.4477 135 15C135 15.5523 135.448 16 136 16H144V24C144 24.5523 144.448 25 145 25C145.552 25 146 24.5523 146 24V15ZM133.707 27.7071L145.707 15.7071L144.293 14.2929L132.293 26.2929L133.707 27.7071Z" fill="black"/>
<circle cx="6" cy="6" r="6" transform="matrix(1 0 0 -1 277 45)" fill="black"/>
<circle cx="6" cy="6" r="8.5" transform="matrix(1 0 0 -1 277 45)" stroke="black" stroke-opacity="0.5" stroke-width="5"/>
<path d="M307 64C307.552 64 308 63.5523 308 63V54C308 53.4477 307.552 53 307 53C306.448 53 306 53.4477 306 54V62H298C297.448 62 297 62.4477 297 63C297 63.5523 297.448 64 298 64H307ZM295.707 50.2929C295.317 49.9024 294.683 49.9024 294.293 50.2929C293.902 50.6834 293.902 51.3166 294.293 51.7071L295.707 50.2929ZM307.707 62.2929L301.707 56.2929L300.293 57.7071L306.293 63.7071L307.707 62.2929ZM301.707 56.2929L295.707 50.2929L294.293 51.7071L300.293 57.7071L301.707 56.2929Z" fill="black"/>
<path d="M271.707 51.7071C272.098 51.3166 272.098 50.6834 271.707 50.2929C271.317 49.9024 270.683 49.9024 270.293 50.2929L271.707 51.7071ZM258 63C258 63.5523 258.448 64 259 64H268C268.552 64 269 63.5523 269 63C269 62.4477 268.552 62 268 62H260V54C260 53.4477 259.552 53 259 53C258.448 53 258 53.4477 258 54V63ZM270.293 50.2929L258.293 62.2929L259.707 63.7071L271.707 51.7071L270.293 50.2929Z" fill="black"/>
<path d="M270.293 27.7071C270.683 28.0976 271.317 28.0976 271.707 27.7071C272.098 27.3166 272.098 26.6834 271.707 26.2929L270.293 27.7071ZM259 14C258.448 14 258 14.4477 258 15L258 24C258 24.5523 258.448 25 259 25C259.552 25 260 24.5523 260 24L260 16L268 16C268.552 16 269 15.5523 269 15C269 14.4477 268.552 14 268 14L259 14ZM271.707 26.2929L259.707 14.2929L258.293 15.7071L270.293 27.7071L271.707 26.2929Z" fill="black"/>
<path d="M294.293 26.2929C293.902 26.6834 293.902 27.3166 294.293 27.7071C294.683 28.0976 295.317 28.0976 295.707 27.7071L294.293 26.2929ZM308 15C308 14.4477 307.552 14 307 14L298 14C297.448 14 297 14.4477 297 15C297 15.5523 297.448 16 298 16H306V24C306 24.5523 306.448 25 307 25C307.552 25 308 24.5523 308 24V15ZM295.707 27.7071L307.707 15.7071L306.293 14.2929L294.293 26.2929L295.707 27.7071Z" fill="black"/>
</svg>
