<svg width="320" height="85" viewBox="0 0 320 85" fill="none" xmlns="http://www.w3.org/2000/svg">
<rect y="10.8537" width="80" height="74.1463" rx="10" fill="#9E5817"/>
<rect y="5" width="80" height="70.2439" rx="10" fill="#EDB878"/>
<rect y="7.92682" width="80" height="72.1951" rx="10" fill="#E29536"/>
<rect x="3.90247" y="9.87805" width="72.1951" height="66.3415" rx="10" fill="#F2A950"/>
<circle cx="6" cy="6" r="6" transform="matrix(1 0 0 -1 34 49)" fill="black"/>
<circle cx="6" cy="6" r="8.5" transform="matrix(1 0 0 -1 34 49)" stroke="black" stroke-opacity="0.5" stroke-width="5"/>
<path d="M64 68C64.5523 68 65 67.5523 65 67V58C65 57.4477 64.5523 57 64 57C63.4477 57 63 57.4477 63 58V66H55C54.4477 66 54 66.4477 54 67C54 67.5523 54.4477 68 55 68H64ZM52.7071 54.2929C52.3166 53.9024 51.6834 53.9024 51.2929 54.2929C50.9024 54.6834 50.9024 55.3166 51.2929 55.7071L52.7071 54.2929ZM64.7071 66.2929L58.7071 60.2929L57.2929 61.7071L63.2929 67.7071L64.7071 66.2929ZM58.7071 60.2929L52.7071 54.2929L51.2929 55.7071L57.2929 61.7071L58.7071 60.2929Z" fill="black"/>
<path d="M28.7071 55.7071C29.0976 55.3166 29.0976 54.6834 28.7071 54.2929C28.3166 53.9024 27.6834 53.9024 27.2929 54.2929L28.7071 55.7071ZM15 67C15 67.5523 15.4477 68 16 68H25C25.5523 68 26 67.5523 26 67C26 66.4477 25.5523 66 25 66H17V58C17 57.4477 16.5523 57 16 57C15.4477 57 15 57.4477 15 58L15 67ZM27.2929 54.2929L15.2929 66.2929L16.7071 67.7071L28.7071 55.7071L27.2929 54.2929Z" fill="black"/>
<path d="M27.2929 31.7071C27.6834 32.0976 28.3166 32.0976 28.7071 31.7071C29.0976 31.3166 29.0976 30.6834 28.7071 30.2929L27.2929 31.7071ZM16 18C15.4477 18 15 18.4477 15 19L15 28C15 28.5523 15.4477 29 16 29C16.5523 29 17 28.5523 17 28L17 20L25 20C25.5523 20 26 19.5523 26 19C26 18.4477 25.5523 18 25 18L16 18ZM28.7071 30.2929L16.7071 18.2929L15.2929 19.7071L27.2929 31.7071L28.7071 30.2929Z" fill="black"/>
<path d="M51.2929 30.2929C50.9024 30.6834 50.9024 31.3166 51.2929 31.7071C51.6834 32.0976 52.3166 32.0976 52.7071 31.7071L51.2929 30.2929ZM65 19C65 18.4477 64.5523 18 64 18L55 18C54.4477 18 54 18.4477 54 19C54 19.5523 54.4477 20 55 20H63V28C63 28.5523 63.4477 29 64 29C64.5523 29 65 28.5523 65 28V19ZM52.7071 31.7071L64.7071 19.7071L63.2929 18.2929L51.2929 30.2929L52.7071 31.7071Z" fill="black"/>
<rect x="160" y="10.8537" width="80" height="74.1463" rx="10" fill="#179E8A"/>
<rect x="160" y="5" width="80" height="70.2439" rx="10" fill="#78EDDB"/>
<rect x="160" y="7.92682" width="80" height="72.1951" rx="10" fill="#36E2C8"/>
<rect x="163.902" y="9.87805" width="72.1951" height="66.3415" rx="10" fill="#50F2DA"/>
<circle cx="6" cy="6" r="6" transform="matrix(1 0 0 -1 194 49)" fill="black"/>
<circle cx="6" cy="6" r="8.5" transform="matrix(1 0 0 -1 194 49)" stroke="black" stroke-opacity="0.5" stroke-width="5"/>
<path d="M224 68C224.552 68 225 67.5523 225 67V58C225 57.4477 224.552 57 224 57C223.448 57 223 57.4477 223 58V66H215C214.448 66 214 66.4477 214 67C214 67.5523 214.448 68 215 68H224ZM212.707 54.2929C212.317 53.9024 211.683 53.9024 211.293 54.2929C210.902 54.6834 210.902 55.3166 211.293 55.7071L212.707 54.2929ZM224.707 66.2929L218.707 60.2929L217.293 61.7071L223.293 67.7071L224.707 66.2929ZM218.707 60.2929L212.707 54.2929L211.293 55.7071L217.293 61.7071L218.707 60.2929Z" fill="black"/>
<path d="M188.707 55.7071C189.098 55.3166 189.098 54.6834 188.707 54.2929C188.317 53.9024 187.683 53.9024 187.293 54.2929L188.707 55.7071ZM175 67C175 67.5523 175.448 68 176 68H185C185.552 68 186 67.5523 186 67C186 66.4477 185.552 66 185 66H177V58C177 57.4477 176.552 57 176 57C175.448 57 175 57.4477 175 58V67ZM187.293 54.2929L175.293 66.2929L176.707 67.7071L188.707 55.7071L187.293 54.2929Z" fill="black"/>
<path d="M187.293 31.7071C187.683 32.0976 188.317 32.0976 188.707 31.7071C189.098 31.3166 189.098 30.6834 188.707 30.2929L187.293 31.7071ZM176 18C175.448 18 175 18.4477 175 19L175 28C175 28.5523 175.448 29 176 29C176.552 29 177 28.5523 177 28L177 20L185 20C185.552 20 186 19.5523 186 19C186 18.4477 185.552 18 185 18L176 18ZM188.707 30.2929L176.707 18.2929L175.293 19.7071L187.293 31.7071L188.707 30.2929Z" fill="black"/>
<path d="M211.293 30.2929C210.902 30.6834 210.902 31.3166 211.293 31.7071C211.683 32.0976 212.317 32.0976 212.707 31.7071L211.293 30.2929ZM225 19C225 18.4477 224.552 18 224 18L215 18C214.448 18 214 18.4477 214 19C214 19.5523 214.448 20 215 20H223V28C223 28.5523 223.448 29 224 29C224.552 29 225 28.5523 225 28V19ZM212.707 31.7071L224.707 19.7071L223.293 18.2929L211.293 30.2929L212.707 31.7071Z" fill="black"/>
<rect x="80" y="6" width="80" height="79" rx="10" fill="#9E5817"/>
<rect x="80" width="80" height="70.2439" rx="10" fill="#EDB878"/>
<rect x="80" y="2.92683" width="80" height="72.1951" rx="10" fill="#E29536"/>
<rect x="83.9025" y="4.87805" width="72.1951" height="66.3415" rx="10" fill="#F2A950"/>
<circle cx="6" cy="6" r="6" transform="matrix(1 0 0 -1 114 44)" fill="black"/>
<circle cx="6" cy="6" r="8.5" transform="matrix(1 0 0 -1 114 44)" stroke="black" stroke-opacity="0.5" stroke-width="5"/>
<path d="M144 63C144.552 63 145 62.5523 145 62V53C145 52.4477 144.552 52 144 52C143.448 52 143 52.4477 143 53V61H135C134.448 61 134 61.4477 134 62C134 62.5523 134.448 63 135 63H144ZM132.707 49.2929C132.317 48.9024 131.683 48.9024 131.293 49.2929C130.902 49.6834 130.902 50.3166 131.293 50.7071L132.707 49.2929ZM144.707 61.2929L138.707 55.2929L137.293 56.7071L143.293 62.7071L144.707 61.2929ZM138.707 55.2929L132.707 49.2929L131.293 50.7071L137.293 56.7071L138.707 55.2929Z" fill="black"/>
<path d="M108.707 50.7071C109.098 50.3166 109.098 49.6834 108.707 49.2929C108.317 48.9024 107.683 48.9024 107.293 49.2929L108.707 50.7071ZM95 62C95 62.5523 95.4477 63 96 63H105C105.552 63 106 62.5523 106 62C106 61.4477 105.552 61 105 61H97V53C97 52.4477 96.5523 52 96 52C95.4477 52 95 52.4477 95 53V62ZM107.293 49.2929L95.2929 61.2929L96.7071 62.7071L108.707 50.7071L107.293 49.2929Z" fill="black"/>
<path d="M107.293 26.7071C107.683 27.0976 108.317 27.0976 108.707 26.7071C109.098 26.3166 109.098 25.6834 108.707 25.2929L107.293 26.7071ZM96 13C95.4477 13 95 13.4477 95 14L95 23C95 23.5523 95.4477 24 96 24C96.5523 24 97 23.5523 97 23L97 15L105 15C105.552 15 106 14.5523 106 14C106 13.4477 105.552 13 105 13L96 13ZM108.707 25.2929L96.7071 13.2929L95.2929 14.7071L107.293 26.7071L108.707 25.2929Z" fill="black"/>
<path d="M131.293 25.2929C130.902 25.6834 130.902 26.3166 131.293 26.7071C131.683 27.0976 132.317 27.0976 132.707 26.7071L131.293 25.2929ZM145 14C145 13.4477 144.552 13 144 13L135 13C134.448 13 134 13.4477 134 14C134 14.5523 134.448 15 135 15H143V23C143 23.5523 143.448 24 144 24C144.552 24 145 23.5523 145 23V14ZM132.707 26.7071L144.707 14.7071L143.293 13.2929L131.293 25.2929L132.707 26.7071Z" fill="black"/>
<rect x="240" y="5.93024" width="80" height="79.0698" rx="10" fill="#179E8A"/>
<rect x="240" width="80" height="71.1628" rx="10" fill="#78EDDB"/>
<rect x="240" y="2.96512" width="80" height="73.1395" rx="10" fill="#36E2C8"/>
<rect x="243.902" y="4.94186" width="72.1951" height="67.2093" rx="10" fill="#50F2DA"/>
<circle cx="6" cy="6" r="6" transform="matrix(1 0 0 -1 274 44)" fill="black"/>
<circle cx="6" cy="6" r="8.5" transform="matrix(1 0 0 -1 274 44)" stroke="black" stroke-opacity="0.5" stroke-width="5"/>
<path d="M304 63C304.552 63 305 62.5523 305 62V53C305 52.4477 304.552 52 304 52C303.448 52 303 52.4477 303 53V61H295C294.448 61 294 61.4477 294 62C294 62.5523 294.448 63 295 63H304ZM292.707 49.2929C292.317 48.9024 291.683 48.9024 291.293 49.2929C290.902 49.6834 290.902 50.3166 291.293 50.7071L292.707 49.2929ZM304.707 61.2929L298.707 55.2929L297.293 56.7071L303.293 62.7071L304.707 61.2929ZM298.707 55.2929L292.707 49.2929L291.293 50.7071L297.293 56.7071L298.707 55.2929Z" fill="black"/>
<path d="M268.707 50.7071C269.098 50.3166 269.098 49.6834 268.707 49.2929C268.317 48.9024 267.683 48.9024 267.293 49.2929L268.707 50.7071ZM255 62C255 62.5523 255.448 63 256 63H265C265.552 63 266 62.5523 266 62C266 61.4477 265.552 61 265 61H257V53C257 52.4477 256.552 52 256 52C255.448 52 255 52.4477 255 53V62ZM267.293 49.2929L255.293 61.2929L256.707 62.7071L268.707 50.7071L267.293 49.2929Z" fill="black"/>
<path d="M267.293 26.7071C267.683 27.0976 268.317 27.0976 268.707 26.7071C269.098 26.3166 269.098 25.6834 268.707 25.2929L267.293 26.7071ZM256 13C255.448 13 255 13.4477 255 14L255 23C255 23.5523 255.448 24 256 24C256.552 24 257 23.5523 257 23L257 15L265 15C265.552 15 266 14.5523 266 14C266 13.4477 265.552 13 265 13L256 13ZM268.707 25.2929L256.707 13.2929L255.293 14.7071L267.293 26.7071L268.707 25.2929Z" fill="black"/>
<path d="M291.293 25.2929C290.902 25.6834 290.902 26.3166 291.293 26.7071C291.683 27.0976 292.317 27.0976 292.707 26.7071L291.293 25.2929ZM305 14C305 13.4477 304.552 13 304 13L295 13C294.448 13 294 13.4477 294 14C294 14.5523 294.448 15 295 15H303V23C303 23.5523 303.448 24 304 24C304.552 24 305 23.5523 305 23V14ZM292.707 26.7071L304.707 14.7071L303.293 13.2929L291.293 25.2929L292.707 26.7071Z" fill="black"/>
</svg>
