<svg width="200" height="54" viewBox="0 0 200 54" fill="none" xmlns="http://www.w3.org/2000/svg">
<rect y="6.78354" width="50" height="46.3415" rx="10" fill="#9E5817"/>
<rect y="3.125" width="50" height="43.9024" rx="10" fill="#EDB878"/>
<rect y="4.95425" width="50" height="45.122" rx="10" fill="#E29536"/>
<rect x="2.43903" y="6.17378" width="45.122" height="41.4634" rx="10" fill="#F2A950"/>
<circle cx="3.75" cy="3.75" r="3.75" transform="matrix(1 0 0 -1 21.25 30.625)" fill="black"/>
<circle cx="3.75" cy="3.75" r="6.25" transform="matrix(1 0 0 -1 21.25 30.625)" stroke="black" stroke-opacity="0.5" stroke-width="5"/>
<path d="M40 42.875C40.5523 42.875 41 42.4273 41 41.875V32.875C41 32.3227 40.5523 31.875 40 31.875C39.4477 31.875 39 32.3227 39 32.875V40.875H31C30.4477 40.875 30 41.3227 30 41.875C30 42.4273 30.4477 42.875 31 42.875H40ZM33.2071 33.6679C32.8166 33.2774 32.1834 33.2774 31.7929 33.6679C31.4024 34.0584 31.4024 34.6916 31.7929 35.0821L33.2071 33.6679ZM40.7071 41.1679L36.9571 37.4179L35.5429 38.8321L39.2929 42.5821L40.7071 41.1679ZM36.9571 37.4179L33.2071 33.6679L31.7929 35.0821L35.5429 38.8321L36.9571 37.4179Z" fill="black"/>
<path d="M18.2071 35.0821C18.5976 34.6916 18.5976 34.0584 18.2071 33.6679C17.8166 33.2774 17.1834 33.2774 16.7929 33.6679L18.2071 35.0821ZM9 41.875C9 42.4273 9.44771 42.875 10 42.875H19C19.5523 42.875 20 42.4273 20 41.875C20 41.3227 19.5523 40.875 19 40.875H11V32.875C11 32.3227 10.5523 31.875 10 31.875C9.44771 31.875 9 32.3227 9 32.875V41.875ZM16.7929 33.6679L9.29289 41.1679L10.7071 42.5821L18.2071 35.0821L16.7929 33.6679Z" fill="black"/>
<path d="M16.7929 20.0821C17.1834 20.4726 17.8166 20.4726 18.2071 20.0821C18.5976 19.6916 18.5976 19.0584 18.2071 18.6679L16.7929 20.0821ZM10 10.875C9.44772 10.875 9 11.3227 9 11.875L9 20.875C9 21.4273 9.44772 21.875 10 21.875C10.5523 21.875 11 21.4273 11 20.875L11 12.875L19 12.875C19.5523 12.875 20 12.4273 20 11.875C20 11.3227 19.5523 10.875 19 10.875L10 10.875ZM18.2071 18.6679L10.7071 11.1679L9.29289 12.5821L16.7929 20.0821L18.2071 18.6679Z" fill="black"/>
<path d="M31.7929 18.6679C31.4024 19.0584 31.4024 19.6916 31.7929 20.0821C32.1834 20.4726 32.8166 20.4726 33.2071 20.0821L31.7929 18.6679ZM41 11.875C41 11.3227 40.5523 10.875 40 10.875H31C30.4477 10.875 30 11.3227 30 11.875C30 12.4273 30.4477 12.875 31 12.875H39V20.875C39 21.4273 39.4477 21.875 40 21.875C40.5523 21.875 41 21.4273 41 20.875V11.875ZM33.2071 20.0821L40.7071 12.5821L39.2929 11.1679L31.7929 18.6679L33.2071 20.0821Z" fill="black"/>
<rect x="100" y="6.78354" width="50" height="46.3415" rx="10" fill="#179E8A"/>
<rect x="100" y="3.125" width="50" height="43.9024" rx="10" fill="#78EDDB"/>
<rect x="100" y="4.95425" width="50" height="45.122" rx="10" fill="#36E2C8"/>
<rect x="102.439" y="6.17378" width="45.122" height="41.4634" rx="10" fill="#50F2DA"/>
<circle cx="3.75" cy="3.75" r="3.75" transform="matrix(1 0 0 -1 121.25 30.625)" fill="black"/>
<circle cx="3.75" cy="3.75" r="6.25" transform="matrix(1 0 0 -1 121.25 30.625)" stroke="black" stroke-opacity="0.5" stroke-width="5"/>
<path d="M140 42.875C140.552 42.875 141 42.4273 141 41.875V32.875C141 32.3227 140.552 31.875 140 31.875C139.448 31.875 139 32.3227 139 32.875V40.875H131C130.448 40.875 130 41.3227 130 41.875C130 42.4273 130.448 42.875 131 42.875H140ZM133.207 33.6679C132.817 33.2774 132.183 33.2774 131.793 33.6679C131.402 34.0584 131.402 34.6916 131.793 35.0821L133.207 33.6679ZM140.707 41.1679L136.957 37.4179L135.543 38.8321L139.293 42.5821L140.707 41.1679ZM136.957 37.4179L133.207 33.6679L131.793 35.0821L135.543 38.8321L136.957 37.4179Z" fill="black"/>
<path d="M118.207 35.0821C118.598 34.6916 118.598 34.0584 118.207 33.6679C117.817 33.2774 117.183 33.2774 116.793 33.6679L118.207 35.0821ZM109 41.875C109 42.4273 109.448 42.875 110 42.875H119C119.552 42.875 120 42.4273 120 41.875C120 41.3227 119.552 40.875 119 40.875H111V32.875C111 32.3227 110.552 31.875 110 31.875C109.448 31.875 109 32.3227 109 32.875V41.875ZM116.793 33.6679L109.293 41.1679L110.707 42.5821L118.207 35.0821L116.793 33.6679Z" fill="black"/>
<path d="M116.793 20.0821C117.183 20.4726 117.817 20.4726 118.207 20.0821C118.598 19.6916 118.598 19.0584 118.207 18.6679L116.793 20.0821ZM110 10.875C109.448 10.875 109 11.3227 109 11.875L109 20.875C109 21.4273 109.448 21.875 110 21.875C110.552 21.875 111 21.4273 111 20.875L111 12.875L119 12.875C119.552 12.875 120 12.4273 120 11.875C120 11.3227 119.552 10.875 119 10.875L110 10.875ZM118.207 18.6679L110.707 11.1679L109.293 12.5821L116.793 20.0821L118.207 18.6679Z" fill="black"/>
<path d="M131.793 18.6679C131.402 19.0584 131.402 19.6916 131.793 20.0821C132.183 20.4726 132.817 20.4726 133.207 20.0821L131.793 18.6679ZM141 11.875C141 11.3227 140.552 10.875 140 10.875H131C130.448 10.875 130 11.3227 130 11.875C130 12.4273 130.448 12.875 131 12.875H139V20.875C139 21.4273 139.448 21.875 140 21.875C140.552 21.875 141 21.4273 141 20.875V11.875ZM133.207 20.0821L140.707 12.5821L139.293 11.1679L131.793 18.6679L133.207 20.0821Z" fill="black"/>
<rect x="50" y="3.75" width="50" height="49.375" rx="10" fill="#9E5817"/>
<rect x="50" width="50" height="43.9024" rx="10" fill="#EDB878"/>
<rect x="50" y="1.82927" width="50" height="45.122" rx="10" fill="#E29536"/>
<rect x="52.439" y="3.04878" width="45.122" height="41.4634" rx="10" fill="#F2A950"/>
<circle cx="3.75" cy="3.75" r="3.75" transform="matrix(1 0 0 -1 71.25 27.5)" fill="black"/>
<circle cx="3.75" cy="3.75" r="6.25" transform="matrix(1 0 0 -1 71.25 27.5)" stroke="black" stroke-opacity="0.5" stroke-width="5"/>
<path d="M90 39.75C90.5523 39.75 91 39.3023 91 38.75V29.75C91 29.1977 90.5523 28.75 90 28.75C89.4477 28.75 89 29.1977 89 29.75V37.75H81C80.4477 37.75 80 38.1977 80 38.75C80 39.3023 80.4477 39.75 81 39.75H90ZM83.2071 30.5429C82.8166 30.1524 82.1834 30.1524 81.7929 30.5429C81.4024 30.9334 81.4024 31.5666 81.7929 31.9571L83.2071 30.5429ZM90.7071 38.0429L86.9571 34.2929L85.5429 35.7071L89.2929 39.4571L90.7071 38.0429ZM86.9571 34.2929L83.2071 30.5429L81.7929 31.9571L85.5429 35.7071L86.9571 34.2929Z" fill="black"/>
<path d="M68.2071 31.9571C68.5976 31.5666 68.5976 30.9334 68.2071 30.5429C67.8166 30.1524 67.1834 30.1524 66.7929 30.5429L68.2071 31.9571ZM59 38.75C59 39.3023 59.4477 39.75 60 39.75H69C69.5523 39.75 70 39.3023 70 38.75C70 38.1977 69.5523 37.75 69 37.75H61V29.75C61 29.1977 60.5523 28.75 60 28.75C59.4477 28.75 59 29.1977 59 29.75V38.75ZM66.7929 30.5429L59.2929 38.0429L60.7071 39.4571L68.2071 31.9571L66.7929 30.5429Z" fill="black"/>
<path d="M66.7929 16.9571C67.1834 17.3476 67.8166 17.3476 68.2071 16.9571C68.5976 16.5666 68.5976 15.9334 68.2071 15.5429L66.7929 16.9571ZM60 7.75C59.4477 7.75 59 8.19771 59 8.75L59 17.75C59 18.3023 59.4477 18.75 60 18.75C60.5523 18.75 61 18.3023 61 17.75L61 9.75L69 9.75C69.5523 9.75 70 9.30229 70 8.75C70 8.19772 69.5523 7.75 69 7.75L60 7.75ZM68.2071 15.5429L60.7071 8.04289L59.2929 9.45711L66.7929 16.9571L68.2071 15.5429Z" fill="black"/>
<path d="M81.7929 15.5429C81.4024 15.9334 81.4024 16.5666 81.7929 16.9571C82.1834 17.3476 82.8166 17.3476 83.2071 16.9571L81.7929 15.5429ZM91 8.75C91 8.19772 90.5523 7.75 90 7.75H81C80.4477 7.75 80 8.19772 80 8.75C80 9.30228 80.4477 9.75 81 9.75H89V17.75C89 18.3023 89.4477 18.75 90 18.75C90.5523 18.75 91 18.3023 91 17.75V8.75ZM83.2071 16.9571L90.7071 9.45711L89.2929 8.04289L81.7929 15.5429L83.2071 16.9571Z" fill="black"/>
<rect x="150" y="3.70639" width="50" height="49.4186" rx="10" fill="#179E8A"/>
<rect x="150" width="50" height="44.4767" rx="10" fill="#78EDDB"/>
<rect x="150" y="1.8532" width="50" height="45.7122" rx="10" fill="#36E2C8"/>
<rect x="152.439" y="3.08867" width="45.122" height="42.0058" rx="10" fill="#50F2DA"/>
<circle cx="3.75" cy="3.75" r="3.75" transform="matrix(1 0 0 -1 171.25 27.5)" fill="black"/>
<circle cx="3.75" cy="3.75" r="6.25" transform="matrix(1 0 0 -1 171.25 27.5)" stroke="black" stroke-opacity="0.5" stroke-width="5"/>
<path d="M190 39.75C190.552 39.75 191 39.3023 191 38.75V29.75C191 29.1977 190.552 28.75 190 28.75C189.448 28.75 189 29.1977 189 29.75V37.75H181C180.448 37.75 180 38.1977 180 38.75C180 39.3023 180.448 39.75 181 39.75H190ZM183.207 30.5429C182.817 30.1524 182.183 30.1524 181.793 30.5429C181.402 30.9334 181.402 31.5666 181.793 31.9571L183.207 30.5429ZM190.707 38.0429L186.957 34.2929L185.543 35.7071L189.293 39.4571L190.707 38.0429ZM186.957 34.2929L183.207 30.5429L181.793 31.9571L185.543 35.7071L186.957 34.2929Z" fill="black"/>
<path d="M168.207 31.9571C168.598 31.5666 168.598 30.9334 168.207 30.5429C167.817 30.1524 167.183 30.1524 166.793 30.5429L168.207 31.9571ZM159 38.75C159 39.3023 159.448 39.75 160 39.75H169C169.552 39.75 170 39.3023 170 38.75C170 38.1977 169.552 37.75 169 37.75H161V29.75C161 29.1977 160.552 28.75 160 28.75C159.448 28.75 159 29.1977 159 29.75V38.75ZM166.793 30.5429L159.293 38.0429L160.707 39.4571L168.207 31.9571L166.793 30.5429Z" fill="black"/>
<path d="M166.793 16.9571C167.183 17.3476 167.817 17.3476 168.207 16.9571C168.598 16.5666 168.598 15.9334 168.207 15.5429L166.793 16.9571ZM160 7.75C159.448 7.75 159 8.19771 159 8.75L159 17.75C159 18.3023 159.448 18.75 160 18.75C160.552 18.75 161 18.3023 161 17.75L161 9.75L169 9.75C169.552 9.75 170 9.30229 170 8.75C170 8.19772 169.552 7.75 169 7.75L160 7.75ZM168.207 15.5429L160.707 8.04289L159.293 9.45711L166.793 16.9571L168.207 15.5429Z" fill="black"/>
<path d="M181.793 15.5429C181.402 15.9334 181.402 16.5666 181.793 16.9571C182.183 17.3476 182.817 17.3476 183.207 16.9571L181.793 15.5429ZM191 8.75C191 8.19772 190.552 7.75 190 7.75H181C180.448 7.75 180 8.19772 180 8.75C180 9.30228 180.448 9.75 181 9.75H189V17.75C189 18.3023 189.448 18.75 190 18.75C190.552 18.75 191 18.3023 191 17.75V8.75ZM183.207 16.9571L190.707 9.45711L189.293 8.04289L181.793 15.5429L183.207 16.9571Z" fill="black"/>
</svg>
